<svg xmlns="http://www.w3.org/2000/svg" xmlns:xlink="http://www.w3.org/1999/xlink" width="499" height="262.046" viewBox="0 0 499 262.046">
  <defs>
    <linearGradient id="linear-gradient" x1="20.421" y1="7.031" x2="20.421" y2="4.836" gradientUnits="objectBoundingBox">
      <stop offset="0" stop-color="gray" stop-opacity="0.251"/>
      <stop offset="0.54" stop-color="gray" stop-opacity="0.122"/>
      <stop offset="1" stop-color="gray" stop-opacity="0.102"/>
    </linearGradient>
    <linearGradient id="linear-gradient-2" x1="5.018" y1="10.438" x2="5.018" y2="8.24" xlink:href="#linear-gradient"/>
  </defs>
  <g id="surface1" transform="translate(0 0.163)" opacity="0.51">
    <g id="Group_1007" data-name="Group 1007">
      <path id="Path_1836" data-name="Path 1836" d="M223.457,165c0-3.75-2.32-6.789-5.18-6.789s-5.183,3.039-5.183,6.789,2.32,6.789,5.183,6.789S223.457,168.75,223.457,165Zm0,0" fill="#3f3d56"/>
      <path id="Path_1837" data-name="Path 1837" d="M222.379,135.953a8.172,8.172,0,0,0,1.082-4.152c0-3.75-2.32-6.789-5.184-6.789s-5.2,3.051-5.2,6.8a8.188,8.188,0,0,0,1.082,4.148,8.482,8.482,0,0,0,0,8.3,8.49,8.49,0,0,0,0,8.3,8.186,8.186,0,0,0-1.082,4.148c0,3.746,2.32,6.789,5.18,6.789s5.187-3.043,5.187-6.789a8.17,8.17,0,0,0-1.086-4.148,8.484,8.484,0,0,0,0-8.3,8.477,8.477,0,0,0,0-8.3Zm0,0" fill="#3f3d56"/>
      <path id="Path_1838" data-name="Path 1838" d="M223.457,123.512c0-3.746-2.32-6.789-5.18-6.789s-5.183,3.043-5.183,6.789,2.32,6.793,5.183,6.793S223.457,127.262,223.457,123.512Zm0,0" fill="#3f3d56"/>
      <path id="Path_1839" data-name="Path 1839" d="M223.457,115.215c0-3.75-2.32-6.789-5.18-6.789s-5.183,3.039-5.183,6.789,2.32,6.789,5.183,6.789S223.457,118.965,223.457,115.215Zm0,0" fill="#3f3d56"/>
      <path id="Path_1840" data-name="Path 1840" d="M198.879,58.43a25.08,25.08,0,0,1-1.93-2.844l13.614-2.238-14.723.109a24.906,24.906,0,0,1-.457-19.684l19.758,10.258L196.926,30.625A24.832,24.832,0,1,1,237.9,58.418a24.685,24.685,0,0,1,2.832,4.531L223.059,72.16,241.9,65.832a24.855,24.855,0,0,1-4,23.328,24.832,24.832,0,1,1-39.019,0,24.863,24.863,0,0,1,0-30.719Zm0,0" fill="#ff2828"/>
      <g id="Group_1006" data-name="Group 1006">
        <path id="Path_1841" data-name="Path 1841" d="M243.211,73.789A24.726,24.726,0,0,1,237.9,89.148a24.832,24.832,0,1,1-39.019,0C195.551,84.918,243.211,71,243.211,73.789Zm0,0" fill="#ff2828"/>
      </g>
    </g>
    <g id="Group_1009" data-name="Group 1009">
      <path id="Path_1842" data-name="Path 1842" d="M282.641,150.484c0-2.8-1.735-5.07-3.875-5.07s-3.875,2.27-3.875,5.07,1.734,5.071,3.875,5.071S282.641,153.285,282.641,150.484Zm0,0" fill="#3f3d56"/>
      <path id="Path_1843" data-name="Path 1843" d="M281.824,128.781a6.141,6.141,0,0,0,.809-3.1c0-2.805-1.735-5.079-3.871-5.079s-3.875,2.282-3.875,5.079a6.064,6.064,0,0,0,.812,3.1,6.325,6.325,0,0,0,0,6.2,6.335,6.335,0,0,0,0,6.2,6.064,6.064,0,0,0-.812,3.1c0,2.8,1.734,5.078,3.875,5.078s3.871-2.281,3.871-5.078a6.141,6.141,0,0,0-.809-3.1,6.376,6.376,0,0,0,0-6.2A6.366,6.366,0,0,0,281.824,128.781Zm0,0" fill="#3f3d56"/>
      <path id="Path_1844" data-name="Path 1844" d="M282.641,119.48c0-2.8-1.735-5.07-3.875-5.07s-3.875,2.27-3.875,5.07,1.734,5.071,3.875,5.071S282.641,122.281,282.641,119.48Zm0,0" fill="#3f3d56"/>
      <path id="Path_1845" data-name="Path 1845" d="M282.641,113.281c0-2.8-1.735-5.074-3.875-5.074s-3.875,2.273-3.875,5.074,1.734,5.071,3.875,5.071S282.641,116.082,282.641,113.281Zm0,0" fill="#3f3d56"/>
      <path id="Path_1846" data-name="Path 1846" d="M264.27,70.844a17.275,17.275,0,0,1-1.442-2.121L273,67.051,262,67.133a18.611,18.611,0,0,1-.351-14.715l14.761,7.668L262.789,50.063A18.558,18.558,0,1,1,293.426,70.84a18.647,18.647,0,0,1,2.117,3.387l-13.2,6.867,14.082-4.731A18.571,18.571,0,0,1,293.43,93.8a18.554,18.554,0,1,1-29.137,0,18.58,18.58,0,0,1,0-22.957Zm0,0" fill="#ff2828"/>
      <g id="Group_1008" data-name="Group 1008">
        <path id="Path_1847" data-name="Path 1847" d="M297.4,82.324A18.5,18.5,0,0,1,293.426,93.8a18.555,18.555,0,1,1-29.137,0C261.793,90.645,297.4,80.242,297.4,82.324Zm0,0" fill="#ff2828"/>
      </g>
    </g>
    <g id="Group_1011" data-name="Group 1011">
      <path id="Path_1848" data-name="Path 1848" d="M478.039,146.773c0-3.75-2.32-6.789-5.184-6.789s-5.179,3.039-5.179,6.789,2.32,6.79,5.179,6.79S478.039,150.523,478.039,146.773Zm0,0" fill="#3f3d56"/>
      <path id="Path_1849" data-name="Path 1849" d="M468.754,117.727a8.176,8.176,0,0,1-1.082-4.153c0-3.75,2.32-6.789,5.183-6.789s5.184,3.039,5.184,6.789a8.22,8.22,0,0,1-1.086,4.153,8.48,8.48,0,0,1,0,8.3,8.482,8.482,0,0,1,0,8.3,8.151,8.151,0,0,1,1.086,4.153c0,3.746-2.324,6.789-5.184,6.789s-5.183-3.043-5.183-6.789a8.187,8.187,0,0,1,1.082-4.153,8.482,8.482,0,0,1,0-8.3A8.48,8.48,0,0,1,468.754,117.727Zm0,0" fill="#3f3d56"/>
      <path id="Path_1850" data-name="Path 1850" d="M478.039,105.289c0-3.75-2.32-6.789-5.184-6.789s-5.179,3.039-5.179,6.789,2.32,6.789,5.179,6.789S478.039,109.039,478.039,105.289Zm0,0" fill="#3f3d56"/>
      <path id="Path_1851" data-name="Path 1851" d="M478.039,96.988c0-3.746-2.32-6.789-5.184-6.789s-5.179,3.043-5.179,6.789,2.32,6.793,5.179,6.793S478.039,100.738,478.039,96.988Zm0,0" fill="#3f3d56"/>
      <path id="Path_1852" data-name="Path 1852" d="M492.254,40.2a24.68,24.68,0,0,0,1.93-2.844L480.57,35.121l14.723.109a24.889,24.889,0,0,0,.457-19.684L475.992,25.8,494.207,12.4A24.833,24.833,0,1,0,453.23,40.191a24.8,24.8,0,0,0-2.832,4.531l17.68,9.215L449.23,47.605a24.88,24.88,0,0,0,4,23.332,24.831,24.831,0,1,0,39.02,0,24.869,24.869,0,0,0,0-30.723Zm0,0" fill="#ff2828"/>
      <g id="Group_1010" data-name="Group 1010">
        <path id="Path_1853" data-name="Path 1853" d="M447.922,55.563a24.723,24.723,0,0,0,5.312,15.359,24.832,24.832,0,1,0,39.02,0C495.582,66.7,447.922,52.773,447.922,55.563Zm0,0" fill="#ff2828"/>
      </g>
    </g>
    <g id="Group_1013" data-name="Group 1013">
      <path id="Path_1854" data-name="Path 1854" d="M426.715,147.75c0-2.8-1.735-5.07-3.875-5.07s-3.875,2.269-3.875,5.07,1.734,5.07,3.875,5.07S426.715,150.551,426.715,147.75Zm0,0" fill="#3f3d56"/>
      <path id="Path_1855" data-name="Path 1855" d="M419.777,126.047a6.143,6.143,0,0,1-.8-3.1c0-2.8,1.734-5.078,3.871-5.078s3.875,2.281,3.875,5.078a6.081,6.081,0,0,1-.813,3.1,6.333,6.333,0,0,1,0,6.2,6.325,6.325,0,0,1,0,6.2,6.081,6.081,0,0,1,.813,3.1c0,2.805-1.735,5.078-3.875,5.078s-3.871-2.277-3.871-5.078a6.154,6.154,0,0,1,.8-3.1,6.387,6.387,0,0,1,0-6.2A6.4,6.4,0,0,1,419.777,126.047Zm0,0" fill="#3f3d56"/>
      <path id="Path_1856" data-name="Path 1856" d="M426.715,116.746c0-2.8-1.735-5.07-3.875-5.07s-3.875,2.269-3.875,5.07,1.734,5.074,3.875,5.074S426.715,119.547,426.715,116.746Zm0,0" fill="#3f3d56"/>
      <path id="Path_1857" data-name="Path 1857" d="M426.715,110.547c0-2.8-1.735-5.074-3.875-5.074s-3.875,2.273-3.875,5.074,1.734,5.07,3.875,5.07S426.715,113.348,426.715,110.547Zm0,0" fill="#3f3d56"/>
      <path id="Path_1858" data-name="Path 1858" d="M437.336,68.109a17.718,17.718,0,0,0,1.441-2.121L428.6,64.316l11,.082a18.615,18.615,0,0,0,.356-14.715L425.2,57.352l13.621-10.024A18.557,18.557,0,1,0,408.18,68.105a18.73,18.73,0,0,0-2.117,3.387l13.2,6.867-14.055-4.727A18.579,18.579,0,0,0,408.2,91.066a18.556,18.556,0,1,0,29.141,0,18.58,18.58,0,0,0,0-22.957Zm0,0" fill="#ff2828"/>
      <g id="Group_1012" data-name="Group 1012">
        <path id="Path_1859" data-name="Path 1859" d="M404.207,79.59a18.5,18.5,0,0,0,3.973,11.477,18.554,18.554,0,1,0,29.136,0C439.813,87.91,404.207,77.508,404.207,79.59Zm0,0" fill="#ff2828"/>
      </g>
    </g>
    <g id="Group_1015" data-name="Group 1015">
      <path id="Path_1860" data-name="Path 1860" d="M33.223,146.773c0-3.75-2.32-6.789-5.18-6.789s-5.184,3.039-5.184,6.789,2.32,6.79,5.184,6.79S33.223,150.523,33.223,146.773Zm0,0" fill="#3f3d56"/>
      <path id="Path_1861" data-name="Path 1861" d="M32.141,117.727a8.222,8.222,0,0,0,1.082-4.153c0-3.75-2.32-6.789-5.18-6.789s-5.184,3.039-5.184,6.789a8.22,8.22,0,0,0,1.078,4.153,8.519,8.519,0,0,0,0,8.3,8.521,8.521,0,0,0,0,8.3,8.19,8.19,0,0,0-1.078,4.153c0,3.746,2.316,6.789,5.184,6.789s5.191-3.035,5.191-6.782a8.175,8.175,0,0,0-1.082-4.148,8.48,8.48,0,0,0,0-8.3,8.488,8.488,0,0,0,0-8.3Zm0,0" fill="#3f3d56"/>
      <path id="Path_1862" data-name="Path 1862" d="M33.223,105.289c0-3.75-2.32-6.789-5.18-6.789s-5.184,3.039-5.184,6.789,2.32,6.789,5.184,6.789S33.223,109.039,33.223,105.289Zm0,0" fill="#3f3d56"/>
      <path id="Path_1863" data-name="Path 1863" d="M33.223,96.988c0-3.746-2.32-6.789-5.18-6.789s-5.184,3.043-5.184,6.789,2.32,6.793,5.184,6.793S33.223,100.738,33.223,96.988Zm0,0" fill="#3f3d56"/>
      <path id="Path_1864" data-name="Path 1864" d="M8.652,40.2a24.61,24.61,0,0,1-1.934-2.844L20.34,35.121,5.6,35.254A24.893,24.893,0,0,1,5.145,15.57L24.906,25.828,6.691,12.422A24.828,24.828,0,1,1,47.668,40.215,24.738,24.738,0,0,1,50.5,44.746L32.816,53.938l18.852-6.332A24.9,24.9,0,0,1,47.66,70.938a24.831,24.831,0,1,1-39.02,0,24.869,24.869,0,0,1,0-30.723Zm0,0" fill="#ff2828"/>
      <g id="Group_1014" data-name="Group 1014">
        <path id="Path_1865" data-name="Path 1865" d="M52.973,55.563A24.748,24.748,0,0,1,47.66,70.922a24.832,24.832,0,1,1-39.02,0C5.313,66.7,52.973,52.773,52.973,55.563Zm0,0" fill="#ff2828"/>
      </g>
    </g>
    <g id="Group_1017" data-name="Group 1017">
      <path id="Path_1866" data-name="Path 1866" d="M81.93,147.75c0-2.8-1.734-5.07-3.875-5.07s-3.875,2.269-3.875,5.07,1.734,5.07,3.875,5.07S81.93,150.551,81.93,147.75Zm0,0" fill="#3f3d56"/>
      <path id="Path_1867" data-name="Path 1867" d="M81.121,126.047a6.145,6.145,0,0,0,.8-3.1c0-2.8-1.73-5.078-3.871-5.078s-3.875,2.281-3.875,5.078a6.113,6.113,0,0,0,.813,3.1,6.333,6.333,0,0,0,0,6.2,6.325,6.325,0,0,0,0,6.2,6.113,6.113,0,0,0-.812,3.1c0,2.805,1.734,5.078,3.875,5.078s3.871-2.277,3.871-5.078a6.155,6.155,0,0,0-.8-3.1,6.385,6.385,0,0,0,0-6.2A6.393,6.393,0,0,0,81.121,126.047Zm0,0" fill="#3f3d56"/>
      <path id="Path_1868" data-name="Path 1868" d="M81.93,116.746c0-2.8-1.734-5.07-3.875-5.07s-3.875,2.269-3.875,5.07,1.734,5.074,3.875,5.074S81.93,119.547,81.93,116.746Zm0,0" fill="#3f3d56"/>
      <path id="Path_1869" data-name="Path 1869" d="M81.93,110.547c0-2.8-1.734-5.074-3.875-5.074s-3.875,2.273-3.875,5.074,1.734,5.07,3.875,5.07S81.93,113.348,81.93,110.547Zm0,0" fill="#3f3d56"/>
      <path id="Path_1870" data-name="Path 1870" d="M63.559,68.109a18.087,18.087,0,0,1-1.441-2.121l10.176-1.672L61.285,64.4a18.615,18.615,0,0,1-.352-14.715L75.7,57.352,62.078,47.328A18.557,18.557,0,1,1,92.715,68.105a18.085,18.085,0,0,1,2.117,3.387l-13.2,6.867,14.082-4.73a18.57,18.57,0,0,1-2.992,17.434,18.554,18.554,0,1,1-29.137,0,18.58,18.58,0,0,1,0-22.957Zm0,0" fill="#ff2828"/>
      <g id="Group_1016" data-name="Group 1016">
        <path id="Path_1871" data-name="Path 1871" d="M96.688,79.59a18.5,18.5,0,0,1-3.973,11.477,18.556,18.556,0,1,1-29.137,0C61.074,87.91,96.688,77.508,96.688,79.59Zm0,0" fill="#ff2828"/>
      </g>
    </g>
    <g id="Group_1018" data-name="Group 1018">
      <path id="Path_1872" data-name="Path 1872" d="M499,224.7c0-2.23-111.7-4.035-249.5-4.035S0,222.465,0,224.7s111.7,4.039,249.5,4.039S499,226.926,499,224.7Zm0,0" fill="#ff2828"/>
    </g>
    <g id="Group_1019" data-name="Group 1019">
      <path id="Path_1873" data-name="Path 1873" d="M499,257.844c0-2.231-111.7-4.035-249.5-4.035S0,255.613,0,257.844s111.7,4.039,249.5,4.039S499,260.074,499,257.844Zm0,0" fill="#ff2828"/>
    </g>
    <g id="Group_1020" data-name="Group 1020">
      <path id="Path_1874" data-name="Path 1874" d="M499,155.516c0-2.231-111.7-4.039-249.5-4.039S0,153.285,0,155.516s111.7,4.035,249.5,4.035S499,157.742,499,155.516Zm0,0" fill="#ff2828"/>
    </g>
    <g id="Group_1021" data-name="Group 1021">
      <path id="Path_1875" data-name="Path 1875" d="M499,190.1c0-2.231-111.7-4.036-249.5-4.036S0,187.871,0,190.1s111.7,4.039,249.5,4.039S499,192.332,499,190.1Zm0,0" fill="#ff2828"/>
    </g>
    <g id="Group_1022" data-name="Group 1022">
      <path id="Path_1876" data-name="Path 1876" d="M368.234,50.289a8.335,8.335,0,0,0-4.824.531,7.145,7.145,0,0,1-5.8,0,8.132,8.132,0,0,0-6.828.129,4.162,4.162,0,0,1-1.965.492c-2.765,0-5.066-2.785-5.543-6.465a5.4,5.4,0,0,0,1.364-1.488,7.77,7.77,0,0,1,13.875-.051,5.318,5.318,0,0,0,4.593,2.523h.071C365.4,45.938,367.313,47.707,368.234,50.289Zm0,0" fill="#ff2828"/>
    </g>
    <g id="Group_1023" data-name="Group 1023">
      <path id="Path_1877" data-name="Path 1877" d="M376.664,38.738l-4.473,2.836,2.735-4.941a4.451,4.451,0,0,0-2.707-.961h-.071a5.49,5.49,0,0,1-.914-.066l-1.539.961.653-1.184a5.376,5.376,0,0,1-2.653-2.016l-2.734,1.723,1.715-3.117A7.945,7.945,0,0,0,360.6,28.9a8.325,8.325,0,0,0-6.957,4.293,5.2,5.2,0,0,1-4.594,2.477H348.9c-3.113,0-5.636,3.531-5.636,7.887s2.523,7.894,5.636,7.894a4.3,4.3,0,0,0,1.965-.492,8.118,8.118,0,0,1,6.828-.137,7.083,7.083,0,0,0,5.8,0,8.151,8.151,0,0,1,6.766.133,4.231,4.231,0,0,0,1.937.48c3.118,0,5.637-3.535,5.637-7.891A10.009,10.009,0,0,0,376.664,38.738Zm0,0" fill="#ff2828"/>
    </g>
    <g id="Group_1024" data-name="Group 1024">
      <path id="Path_1878" data-name="Path 1878" d="M178.137,47.824a5.842,5.842,0,0,0-3.383.371,4.957,4.957,0,0,1-4.055,0,5.688,5.688,0,0,0-4.777.094,2.982,2.982,0,0,1-1.367.344c-1.934,0-3.547-1.953-3.883-4.527a3.736,3.736,0,0,0,.969-1.043,5.44,5.44,0,0,1,9.714-.035,3.734,3.734,0,0,0,3.219,1.77h.047C176.152,44.785,177.488,46.027,178.137,47.824Zm0,0" fill="#ff2828"/>
    </g>
    <g id="Group_1025" data-name="Group 1025">
      <path id="Path_1879" data-name="Path 1879" d="M184.035,39.746l-3.129,1.988,1.9-3.461a3.061,3.061,0,0,0-1.891-.672h-.055a3.564,3.564,0,0,1-.644-.051l-1.063.676.457-.832a3.783,3.783,0,0,1-1.859-1.406l-1.9,1.2,1.2-2.18a5.568,5.568,0,0,0-4.254-2.156,5.819,5.819,0,0,0-4.867,3.008,3.642,3.642,0,0,1-3.219,1.738h-.106c-2.179,0-3.945,2.469-3.945,5.52s1.766,5.523,3.945,5.523a2.983,2.983,0,0,0,1.368-.344,5.694,5.694,0,0,1,4.773-.094,5.046,5.046,0,0,0,2.043.457,4.973,4.973,0,0,0,2.016-.43,5.706,5.706,0,0,1,4.734.094,2.973,2.973,0,0,0,1.367.336c2.176,0,3.942-2.473,3.942-5.524A6.987,6.987,0,0,0,184.035,39.746Zm0,0" fill="#ff2828"/>
    </g>
    <g id="Group_1026" data-name="Group 1026">
      <path id="Path_1880" data-name="Path 1880" d="M122.742,83.555a5.825,5.825,0,0,1,3.379.367,4.967,4.967,0,0,0,4.059,0,5.7,5.7,0,0,1,4.777.09,2.937,2.937,0,0,0,1.367.348c1.934,0,3.547-1.953,3.879-4.527a3.678,3.678,0,0,1-.965-1.047,5.448,5.448,0,0,0-9.718-.031,3.725,3.725,0,0,1-3.211,1.77h-.051C124.723,80.531,123.383,81.766,122.742,83.555Zm0,0" fill="#ff2828"/>
    </g>
    <g id="Group_1027" data-name="Group 1027">
      <path id="Path_1881" data-name="Path 1881" d="M116.84,75.488l3.133,1.984-1.9-3.453a3.128,3.128,0,0,1,1.895-.68h.051a4.065,4.065,0,0,0,.652-.043l1.059.668-.454-.824a3.765,3.765,0,0,0,1.852-1.406l1.9,1.2-1.183-2.184a5.556,5.556,0,0,1,4.254-2.152,5.824,5.824,0,0,1,4.863,3.008,3.647,3.647,0,0,0,3.215,1.738h.109c2.176,0,3.946,2.473,3.946,5.52s-1.77,5.523-3.946,5.523a2.9,2.9,0,0,1-1.363-.34,5.674,5.674,0,0,0-4.777-.1,4.916,4.916,0,0,1-2.039.457,5.021,5.021,0,0,1-2.024-.43,5.7,5.7,0,0,0-4.73.094,2.97,2.97,0,0,1-1.364.336c-2.183,0-3.949-2.469-3.949-5.523A7.092,7.092,0,0,1,116.84,75.488Zm0,0" fill="#ff2828"/>
    </g>
    <path id="Path_1882" data-name="Path 1882" d="M326.127,297.488c1.191-2.2-.156-4.9-1.707-6.867s-3.442-4.008-3.4-6.508c.059-3.6,3.875-5.727,6.918-7.629a33.811,33.811,0,0,0,6.215-5.012,9.192,9.192,0,0,0,1.91-2.563,10.4,10.4,0,0,0,.574-4.555q-.2-7.7-.762-15.383" transform="translate(-23.675 -74.103)" fill="none" stroke="#3f3d56" stroke-miterlimit="10" stroke-width="1.822"/>
    <path id="Path_1883" data-name="Path 1883" d="M318,174.613a5.613,5.613,0,0,0-2.8-4.6l-1.258,2.484.043-3.008A5.612,5.612,0,1,0,318,174.613Zm0,0" fill="#ff2828"/>
    <path id="Path_1884" data-name="Path 1884" d="M308,212.578a5.6,5.6,0,0,1-10.582-2.277,5.472,5.472,0,0,1,.367-2.278,5.606,5.606,0,0,1,10.469.059l-3.5,2.852,3.851-.911A5.58,5.58,0,0,1,308,212.578Zm0,0" fill="#ff2828"/>
    <path id="Path_1885" data-name="Path 1885" d="M305.23,201.691a5.609,5.609,0,0,1-1.773-11L303.426,193l1.269-2.516a5.612,5.612,0,0,1,.524,11.211Zm0,0" fill="#ff2828"/>
    <path id="Path_1886" data-name="Path 1886" d="M318.84,192.629a5.609,5.609,0,1,1,2.476-10.481l-.988,2.735,2.02-2a5.609,5.609,0,0,1-3.524,9.734Zm0,0" fill="#ff2828"/>
    <g id="Group_1028" data-name="Group 1028">
      <path id="Path_1887" data-name="Path 1887" d="M317.242,176.109c-1.293.141-2.551.543-3.851.625a4.178,4.178,0,0,1-3.543-1.238,18.118,18.118,0,0,1-1.035-1.824,3.979,3.979,0,0,0-1.415-1.332,5.607,5.607,0,1,0,10.473,3.73C317.668,176.074,317.453,176.086,317.242,176.109Zm0,0" fill="#ff2828"/>
    </g>
    <g id="Group_1029" data-name="Group 1029">
      <path id="Path_1888" data-name="Path 1888" d="M318.84,192.629a5.613,5.613,0,0,1-5.332-8,4.14,4.14,0,0,1,1.125,1.129,18.884,18.884,0,0,0,1.113,1.855,4.567,4.567,0,0,0,3.719,1.3c1.351-.07,2.66-.457,4.008-.57.183,0,.371-.027.562-.031A5.608,5.608,0,0,1,318.84,192.629Zm0,0" fill="#ff2828"/>
    </g>
    <g id="Group_1030" data-name="Group 1030">
      <path id="Path_1889" data-name="Path 1889" d="M305.23,201.691a5.611,5.611,0,0,1-5.375-7.9,4.571,4.571,0,0,1,1.188,1.141,19.036,19.036,0,0,0,1.215,1.89,5.09,5.09,0,0,0,3.969,1.367c1.429-.058,2.73-.371,4.1-.457A5.626,5.626,0,0,1,305.23,201.691Zm0,0" fill="#ff2828"/>
    </g>
    <g id="Group_1031" data-name="Group 1031">
      <path id="Path_1890" data-name="Path 1890" d="M308,212.578a5.6,5.6,0,0,1-10.582-2.277,5.472,5.472,0,0,1,.367-2.278,5.58,5.58,0,0,1,1.227,1.1c.535.649.883,1.367,1.5,1.992a6.994,6.994,0,0,0,4.64,1.629A23.137,23.137,0,0,0,308,212.578Zm0,0" fill="#ff2828"/>
    </g>
    <path id="Path_1891" data-name="Path 1891" d="M48.4,264.683c1.187-2.207-.16-4.9-1.707-6.867s-3.441-4.019-3.4-6.512c.059-3.594,3.875-5.723,6.922-7.629a33.8,33.8,0,0,0,6.215-5.012,9.139,9.139,0,0,0,1.906-2.559,10.35,10.35,0,0,0,.575-4.559q-.2-7.693-.758-15.383" transform="translate(-23.675 -74.103)" fill="none" stroke="#3f3d56" stroke-miterlimit="10" stroke-width="1.822"/>
    <path id="Path_1892" data-name="Path 1892" d="M40.27,141.809a5.606,5.606,0,0,0-2.8-4.6L36.215,139.7l.039-3.007a5.609,5.609,0,1,0,4.016,5.121Zm0,0" fill="#ff2828"/>
    <path id="Path_1893" data-name="Path 1893" d="M30.273,179.773A5.6,5.6,0,0,1,19.691,177.5a5.478,5.478,0,0,1,.363-2.281,5.608,5.608,0,0,1,10.473.062l-3.5,2.852,3.852-.91A5.588,5.588,0,0,1,30.273,179.773Zm0,0" fill="#ff2828"/>
    <path id="Path_1894" data-name="Path 1894" d="M27.5,168.883a5.609,5.609,0,0,1-1.773-11l-.035,2.309,1.274-2.512a5.61,5.61,0,0,1,.523,11.207Zm0,0" fill="#ff2828"/>
    <path id="Path_1895" data-name="Path 1895" d="M41.113,159.82a5.608,5.608,0,1,1,2.477-10.48l-.988,2.734,2.016-2a5.609,5.609,0,0,1-3.523,9.738Zm0,0" fill="#ff2828"/>
    <g id="Group_1032" data-name="Group 1032">
      <path id="Path_1896" data-name="Path 1896" d="M39.516,143.3c-1.293.144-2.551.543-3.851.625a4.162,4.162,0,0,1-3.543-1.238,17.864,17.864,0,0,1-1.039-1.825,4,4,0,0,0-1.41-1.328,5.606,5.606,0,1,0,10.473,3.727C39.938,143.266,39.723,143.281,39.516,143.3Zm0,0" fill="#ff2828"/>
    </g>
    <g id="Group_1033" data-name="Group 1033">
      <path id="Path_1897" data-name="Path 1897" d="M41.113,159.82a5.608,5.608,0,0,1-5.332-8,4.079,4.079,0,0,1,1.125,1.129,20.253,20.253,0,0,0,1.109,1.856,4.574,4.574,0,0,0,3.723,1.3c1.352-.067,2.656-.457,4-.571.188,0,.375-.027.566-.031A5.608,5.608,0,0,1,41.113,159.82Zm0,0" fill="#ff2828"/>
    </g>
    <g id="Group_1034" data-name="Group 1034">
      <path id="Path_1898" data-name="Path 1898" d="M27.5,168.883a5.606,5.606,0,0,1-5.375-7.895,4.51,4.51,0,0,1,1.188,1.137,18.824,18.824,0,0,0,1.215,1.891,5.069,5.069,0,0,0,3.965,1.367c1.43-.059,2.731-.367,4.1-.453A5.614,5.614,0,0,1,27.5,168.883Zm0,0" fill="#ff2828"/>
    </g>
    <g id="Group_1035" data-name="Group 1035">
      <path id="Path_1899" data-name="Path 1899" d="M30.273,179.773A5.6,5.6,0,0,1,19.691,177.5a5.478,5.478,0,0,1,.363-2.281,5.721,5.721,0,0,1,1.23,1.1,24.753,24.753,0,0,0,1.5,1.989,7,7,0,0,0,4.637,1.633A23.153,23.153,0,0,0,30.273,179.773Zm0,0" fill="#ff2828"/>
    </g>
    <path id="Path_1901" data-name="Path 1901" d="M194.133,104.281a5.6,5.6,0,0,1,2.793-4.6l1.258,2.484-.036-3.008a5.608,5.608,0,1,1-4.015,5.121Zm0,0" fill="#ff2828"/>
    <path id="Path_1909" data-name="Path 1909" d="M400.516,108.527A45.512,45.512,0,1,1,355,62.98,45.527,45.527,0,0,1,400.516,108.527Zm0,0" fill="#3f3d56"/>
    <path id="Path_1910" data-name="Path 1910" d="M374.543,120.273a34.686,34.686,0,0,0-7.285-4.871c-2.184-1.047-2.985-1.027-4.528.086-1.285.914-2.117,1.793-3.589,1.469s-4.4-2.527-7.227-5.348-5.023-5.73-5.336-7.23.551-2.313,1.469-3.6c1.113-1.543,1.144-2.347.086-4.527a34.859,34.859,0,0,0-4.871-7.293c-1.6-1.594-1.942-1.242-2.817-.91a16.2,16.2,0,0,0-2.582,1.367,7.807,7.807,0,0,0-3.1,3.273c-.621,1.332-1.328,3.8,2.3,10.27a59.278,59.278,0,0,0,23.524,23.516c6.457,3.644,8.93,2.918,10.258,2.3a7.637,7.637,0,0,0,3.269-3.1,15.939,15.939,0,0,0,1.367-2.586C375.785,122.219,376.141,121.863,374.543,120.273Zm0,0" fill="#ff2828"/>
    <g id="Group_1040" data-name="Group 1040">
      <path id="Path_1911" data-name="Path 1911" d="M355,62.984a45.564,45.564,0,1,0,45.508,45.543A45.548,45.548,0,0,0,355,62.984Zm0,85.036a39.492,39.492,0,1,1,39.461-39.493A39.479,39.479,0,0,1,355,148.02Zm0,0" fill="rgba(0,0,0,0.32)"/>
    </g>
    <path id="Path_1912" data-name="Path 1912" d="M295.957,177.707a45.51,45.51,0,1,1-45.512-45.547A45.531,45.531,0,0,1,295.957,177.707Zm0,0" fill="#3f3d56"/>
    <path id="Path_1913" data-name="Path 1913" d="M276.332,163.949,262.7,177.824a.249.249,0,0,0-.074.176.259.259,0,0,0,.074.18l9.563,10.172a1.646,1.646,0,1,1-2.328,2.328l-9.512-10.137a.261.261,0,0,0-.363,0l-2.317,2.344a10.189,10.189,0,0,1-7.285,3.066,10.422,10.422,0,0,1-7.414-3.156l-2.227-2.277a.261.261,0,0,0-.363,0l-9.488,10.117a1.647,1.647,0,0,1-2.809-1.164,1.627,1.627,0,0,1,.485-1.164l9.523-10.153a.277.277,0,0,0,0-.355l-13.629-13.875a.249.249,0,0,0-.426.176v27.765a4.064,4.064,0,0,0,4.047,4.051h44.559a4.059,4.059,0,0,0,4.047-4.051V164.125a.248.248,0,0,0-.434-.176Zm0,0" fill="#ff2828"/>
    <path id="Path_1914" data-name="Path 1914" d="M250.445,182.656a6.87,6.87,0,0,0,4.973-2.051l19.848-20.214a3.967,3.967,0,0,0-2.5-.914H228.168a3.936,3.936,0,0,0-2.5.914L245.516,180.6A6.841,6.841,0,0,0,250.445,182.656Zm0,0" fill="#ff2828"/>
    <g id="Group_1041" data-name="Group 1041">
      <path id="Path_1915" data-name="Path 1915" d="M249.875,132.168a45.565,45.565,0,1,0,45.5,45.539A45.546,45.546,0,0,0,249.875,132.168Zm0,85.031a39.49,39.49,0,1,1,39.457-39.492A39.476,39.476,0,0,1,249.875,217.2Zm0,0" fill="rgba(0,0,0,0.32)"/>
    </g>
    <path id="Path_1916" data-name="Path 1916" d="M187.949,143.7a45.512,45.512,0,1,1-45.511-45.547A45.53,45.53,0,0,1,187.949,143.7Zm0,0" fill="#3f3d56"/>
    <path id="Path_1917" data-name="Path 1917" d="M142.438,121.9l-18.145,41.891,1.695,1.7,16.453-7.261,16.457,7.261,1.692-1.7Zm0,0" fill="#ff2828"/>
    <g id="Group_1042" data-name="Group 1042">
      <path id="Path_1918" data-name="Path 1918" d="M142.438,98.133A45.567,45.567,0,1,0,187.945,143.7,45.547,45.547,0,0,0,142.438,98.133Zm0,85.035a39.479,39.479,0,1,1,0,.02Zm0,0" fill="rgba(0,0,0,0.32)"/>
    </g>
    <path id="Path_1919" data-name="Path 1919" d="M359.2,201.055q-.621-1.512-1.273-3.016a8.972,8.972,0,0,0-1.551-2.684,2.89,2.89,0,0,0-.91-.683,3.834,3.834,0,0,0-1.188-.234,9.255,9.255,0,0,0-1.867-.051c-.242-.074-.515-.168-.785-.278a6.506,6.506,0,0,0,4.844-6.039v-.277a6.489,6.489,0,0,0-6.461-6.52,6.353,6.353,0,0,0-3.391.969,6.082,6.082,0,0,0-6.828,3.293,7.545,7.545,0,0,0-2.324,5.606v.289c.121,3.539,2.406,6.379,5.293,6.664a3.03,3.03,0,0,0-.84.562,5.2,5.2,0,0,0-1.125,3.434l-.066.914-1.532.547a.282.282,0,0,0-.066.5l1.461,1.043v.258a1.167,1.167,0,0,0,.027.3,2.063,2.063,0,0,0-.566.808,3.685,3.685,0,0,0-.129,1.477l.055,1.269a9.9,9.9,0,0,0,.386,2.828c.192.567,1.02,1.93,1.614,1.938a58.982,58.982,0,0,0-.7,7.793c-.066.066.125.133.457.187.329,2.512,1.395,9.567,3.3,12.672a27.741,27.741,0,0,1,.715,3.078s.539,6.7,1.254,8.7a44.5,44.5,0,0,1,1.227,7.089.7.7,0,0,0-.508.52c-.36,1.082-2.688,2.734-2.688,2.734a11.264,11.264,0,0,0-2.015,1.289c-.731.661-.7,1.258,2.55.883,6.286-.726,7.36-2.734,7.36-2.734s-.1-.336-.254-.774a8.6,8.6,0,0,0-.82-1.945c-.094-.086-.184.059-.293.285a39.2,39.2,0,0,1-.43-8.8,14.228,14.228,0,0,0-.719-5.253,10,10,0,0,1,0-3.442c.36-1.449-1.433-8.516-1.433-8.516l-1.028-5.2a1.431,1.431,0,0,1,.285.606l.028.105.027.149a.276.276,0,0,0,.074.14c.7,2.918,2.621,11,2.621,12.18,0,1.449,1.793,5.074,1.793,5.074s.715,5.977,1.973,8.328a12.068,12.068,0,0,1,.934,5.575,5.15,5.15,0,0,1-.575,1.847,4.446,4.446,0,0,0-.679,1.18l-.039.09s-.539,1.086-.18,1.269a8.866,8.866,0,0,0,4.309.543s.718-.914.718-1.269a5.926,5.926,0,0,0-.082-.645c-.133-.855-.379-2.207-.383-2.219a6.173,6.173,0,0,0-.453-2.207l-.183-5.07a23.409,23.409,0,0,0-1.258-10.148s-.91-3.258-.715-4.164-.359-10.508-.359-10.508l-.055-.137a10.728,10.728,0,0,1,.055-2.035,26.951,26.951,0,0,0-.719-6.883,5.918,5.918,0,0,1-.254-1.5c.039-.379.164-1.488.332-2.863a50.085,50.085,0,0,0,5.289-.457.5.5,0,0,0,.563-.551C361.223,206.234,360.227,203.582,359.2,201.055Zm-3.613,5.746c.188-1.3.387-2.555.59-3.488l.027.082a25.289,25.289,0,0,1,.864,2.871A9.548,9.548,0,0,1,355.582,206.8Zm0,0" fill="url(#linear-gradient)"/>
    <path id="Path_1920" data-name="Path 1920" d="M341.637,221.469s1.074,9.676,3.4,13.433a27.147,27.147,0,0,1,.715,3.043s.535,6.625,1.25,8.594a47.525,47.525,0,0,1,1.254,7.348s2.5,2.859,3.4.535a37.61,37.61,0,0,1-.539-9.313,14.076,14.076,0,0,0-.715-5.195,9.745,9.745,0,0,1,0-3.4c.356-1.438-1.433-8.418-1.433-8.418l-1.43-6.985Zm0,0" fill="#be6f72"/>
    <path id="Path_1921" data-name="Path 1921" d="M352.91,256.215s-1.074,1.965-7.336,2.683c-3.25.368-3.273-.218-2.539-.875a11.34,11.34,0,0,1,2-1.277s2.324-1.609,2.68-2.683,1.613-.176,1.613-.176c1.789,2.683,2.148-.723,2.5-.364a8.2,8.2,0,0,1,.824,1.918C352.809,255.875,352.91,256.215,352.91,256.215Zm0,0" fill="#ff6f61"/>
    <g id="Group_1043" data-name="Group 1043">
      <path id="Path_1922" data-name="Path 1922" d="M352.91,256.215s-1.074,1.965-7.336,2.683c-3.25.368-3.273-.218-2.539-.875.512.321,1.539.454,3.61-.378,2.984-1.223,5.144-1.93,6.015-2.2C352.809,255.875,352.91,256.215,352.91,256.215Zm0,0" fill="rgba(0,0,0,0.32)"/>
    </g>
    <g id="Group_1044" data-name="Group 1044">
      <path id="Path_1923" data-name="Path 1923" d="M351.121,245.109a14.076,14.076,0,0,0-.715-5.195,9.745,9.745,0,0,1,0-3.4c.356-1.438-1.433-8.418-1.433-8.418l-1.43-6.985-1.238.075,1.414,6.91s1.789,6.98,1.437,8.418a9.556,9.556,0,0,0,0,3.4,13.605,13.605,0,0,1,.711,5.195,38,38,0,0,0,.539,9.313,1.545,1.545,0,0,1-.519.738,1.17,1.17,0,0,0,1.773-.738A37.61,37.61,0,0,1,351.121,245.109Zm0,0" fill="rgba(0,0,0,0.32)"/>
    </g>
    <path id="Path_1924" data-name="Path 1924" d="M349.957,182.164a6.4,6.4,0,0,0-3.379.961,6.322,6.322,0,0,0-3.519.238,5.9,5.9,0,0,0-3.313,3.02,7.428,7.428,0,0,0-2.316,5.543c0,3.808,2.562,6.894,5.722,6.894a5.785,5.785,0,0,0,5.188-3.968,6.446,6.446,0,1,0,1.609-12.688Zm0,0" fill="#3f3d56"/>
    <path id="Path_1925" data-name="Path 1925" d="M355.238,222.367l.535,1.43s.54,9.492.356,10.391.719,4.1.719,4.1a22.962,22.962,0,0,1,1.254,10.024l.175,5.011s.715,1.969.36,2.328-3.055-.32-3.055-.32.359-3.758-.91-6.086-1.965-8.238-1.965-8.238-1.789-3.582-1.789-5.012-2.867-13.074-2.867-13.074Zm0,0" fill="#be6f72"/>
    <path id="Path_1926" data-name="Path 1926" d="M341.277,222.191s.184-6.449.911-8.418a13.176,13.176,0,0,0,.8-2.855s10.832,1.957,11.731,1.242a15.446,15.446,0,0,0,.359,2.684,25.9,25.9,0,0,1,.715,6.808c-.2,2.149,0,2.145,0,2.145s-7.34,1.078-7.519,0-.715-1.07-.715-1.07S340.922,222.527,341.277,222.191Zm0,0" fill="#3f3d56"/>
    <g id="Group_1045" data-name="Group 1045">
      <path id="Path_1927" data-name="Path 1927" d="M347.184,222.191s-4.528-.125-5.891-.371v.371c-.355.356,6.262.536,6.262.536a.443.443,0,0,1,.246.1C347.563,222.191,347.184,222.191,347.184,222.191Zm0,0" fill="rgba(0,0,0,0.32)"/>
      <path id="Path_1928" data-name="Path 1928" d="M355.059,214.844a15.752,15.752,0,0,1-.36-2.684.774.774,0,0,1-.3.11,9.1,9.1,0,0,0,.3,2.039,28.547,28.547,0,0,1,.715,6.8c-.2,2.153,0,2.149,0,2.149s-5.8.851-7.211.281a1.719,1.719,0,0,0,.055.254c.176,1.078,7.515,0,7.515,0s-.179,0,0-2.145A26.52,26.52,0,0,0,355.059,214.844Zm0,0" fill="rgba(0,0,0,0.32)"/>
      <path id="Path_1929" data-name="Path 1929" d="M347.184,222.191s-4.528-.125-5.891-.371v.371c-.355.356,6.262.536,6.262.536a.443.443,0,0,1,.246.1C347.563,222.191,347.184,222.191,347.184,222.191Zm0,0" fill="rgba(0,0,0,0.32)"/>
      <path id="Path_1930" data-name="Path 1930" d="M355.059,214.844a15.752,15.752,0,0,1-.36-2.684.774.774,0,0,1-.3.11,9.1,9.1,0,0,0,.3,2.039,28.547,28.547,0,0,1,.715,6.8c-.2,2.153,0,2.149,0,2.149s-5.8.851-7.211.281a1.719,1.719,0,0,0,.055.254c.176,1.078,7.515,0,7.515,0s-.179,0,0-2.145A26.52,26.52,0,0,0,355.059,214.844Zm0,0" fill="rgba(0,0,0,0.32)"/>
    </g>
    <path id="Path_1931" data-name="Path 1931" d="M349.164,193.445a2.332,2.332,0,0,0,.684.887,1.513,1.513,0,0,0,.64.277c-.4.231-.836.407-1.238.637-.629.426-1.238.883-1.82,1.367a3.7,3.7,0,0,1-2.09.813,2.564,2.564,0,0,0,.289-2.547,2.377,2.377,0,0,1-.316-.887,1.585,1.585,0,0,1,.878-1.183c.34-.231.692-.454,1.047-.68.278-.172.7-.535,1.047-.524s.391.325.453.645A5.221,5.221,0,0,0,349.164,193.445Zm0,0" fill="#be6f72"/>
    <g id="Group_1046" data-name="Group 1046">
      <path id="Path_1932" data-name="Path 1932" d="M349.164,193.445a2.332,2.332,0,0,0,.684.887,1.513,1.513,0,0,0,.64.277c-.4.231-.836.407-1.238.637-.629.426-1.238.883-1.82,1.367a3.7,3.7,0,0,1-2.09.813,2.564,2.564,0,0,0,.289-2.547,2.377,2.377,0,0,1-.316-.887,1.585,1.585,0,0,1,.878-1.183c.34-.231.692-.454,1.047-.68.278-.172.7-.535,1.047-.524s.391.325.453.645A5.221,5.221,0,0,0,349.164,193.445Zm0,0" fill="rgba(0,0,0,0.32)"/>
    </g>
    <path id="Path_1933" data-name="Path 1933" d="M357.473,199.9a4.115,4.115,0,1,1-4.118-4.118A4.122,4.122,0,0,1,357.473,199.9Zm0,0" fill="#be6f72"/>
    <path id="Path_1934" data-name="Path 1934" d="M359.172,258.359c0,.36-.715,1.254-.715,1.254a8.841,8.841,0,0,1-4.293-.539c-.359-.176.176-1.254.176-1.254l.043-.086a4.275,4.275,0,0,1,.676-1.164,5.113,5.113,0,0,0,.57-1.824c1.109-1.824,3.082.789,3.082.789s.25,1.367.383,2.2A5.966,5.966,0,0,1,359.172,258.359Zm0,0" fill="#ff6f61"/>
    <g id="Group_1047" data-name="Group 1047">
      <path id="Path_1935" data-name="Path 1935" d="M359.172,258.359c0,.36-.715,1.254-.715,1.254a8.841,8.841,0,0,1-4.293-.539c-.359-.176.176-1.254.176-1.254l.043-.086a8.58,8.58,0,0,0,3.894.8l.817-.812A6.249,6.249,0,0,1,359.172,258.359Zm0,0" fill="rgba(0,0,0,0.32)"/>
    </g>
    <path id="Path_1936" data-name="Path 1936" d="M349.148,191.3a4.023,4.023,0,1,1-4.023-4.027A4.025,4.025,0,0,1,349.148,191.3Zm0,0" fill="#be6f72"/>
    <path id="Path_1937" data-name="Path 1937" d="M341.879,199.352a5.078,5.078,0,0,0-1.121,3.394l-.137,1.781a9.438,9.438,0,0,0-.031,1.446c0,.3.074.6.1.91s.036.711.039,1.074v2.633a3.112,3.112,0,0,0,.293,1.578,1.066,1.066,0,0,0,1.364.492,1.528,1.528,0,0,0,.566-.871,13.58,13.58,0,0,0,.91-3.336c.035-.4.043-.793.078-1.191s.106-.809.164-1.211c.254-1.676.368-3.371.481-5.063.035-.5.484-2.472-.172-2.691-.316-.106-.976.223-1.285.332A3.533,3.533,0,0,0,341.879,199.352Zm0,0" fill="#be6f72"/>
    <g id="Group_1048" data-name="Group 1048">
      <path id="Path_1938" data-name="Path 1938" d="M341.879,199.352a5.078,5.078,0,0,0-1.121,3.394l-.137,1.781a9.438,9.438,0,0,0-.031,1.446c0,.3.074.6.1.91s.036.711.039,1.074v2.633a3.112,3.112,0,0,0,.293,1.578,1.066,1.066,0,0,0,1.364.492,1.528,1.528,0,0,0,.566-.871,13.58,13.58,0,0,0,.91-3.336c.035-.4.043-.793.078-1.191s.106-.809.164-1.211c.254-1.676.368-3.371.481-5.063.035-.5.484-2.472-.172-2.691-.316-.106-.976.223-1.285.332A3.533,3.533,0,0,0,341.879,199.352Zm0,0" fill="rgba(0,0,0,0.32)"/>
    </g>
    <path id="Path_1939" data-name="Path 1939" d="M350.223,193.9a21.952,21.952,0,0,1-4.828,2.863s-1.063,1.215-1.243,1.5-.547,3.511-.914,4.23a3.431,3.431,0,0,0,0,3.938,6.853,6.853,0,0,1,.18,2.148c-.18.539-.828,2.508-.238,2.6s2.386,1.34,3.992.984,7.609,1.367,7.609,1.367.992-9.226,1.711-10.859l-1.609-.535s-4.473-2.684-1.789-6.8C353.09,195.328,350.574,194.793,350.223,193.9Zm0,0" fill="#ff6f61"/>
    <path id="Path_1940" data-name="Path 1940" d="M339.121,204.68l3.7,2.621a.278.278,0,0,0,.325,0l1-.754a.287.287,0,0,0,0-.43L341.3,203.59a.269.269,0,0,0-.277-.055l-1.829.656a.285.285,0,0,0-.183.223A.276.276,0,0,0,339.121,204.68Zm0,0" fill="#3f3d56"/>
    <path id="Path_1941" data-name="Path 1941" d="M340.363,212.57a9.938,9.938,0,0,1-.386-2.793l-.055-1.261a3.593,3.593,0,0,1,.133-1.457,2.362,2.362,0,0,1,1.531-1.344,5.232,5.232,0,0,1,2.09-.152.536.536,0,0,1,.269.074.507.507,0,0,1,.145.246,1.628,1.628,0,0,1,.082,1.316,1.384,1.384,0,0,1-.418.434c-.5.355-1.074.59-1.543.976a.616.616,0,0,0-.211.266.7.7,0,0,0,0,.289,4.836,4.836,0,0,0,.238.731.73.73,0,0,0,.2.312c.09.07.2.1.293.168.2.16.606.367.582.621a20.005,20.005,0,0,1-.828,2.832C342.078,215.594,340.625,213.34,340.363,212.57Zm0,0" fill="#be6f72"/>
    <g id="Group_1049" data-name="Group 1049">
      <path id="Path_1942" data-name="Path 1942" d="M346.113,212.16h-.1a3.122,3.122,0,0,0,1.172,0h.113A4.05,4.05,0,0,0,346.113,212.16Zm0,0"/>
      <path id="Path_1943" data-name="Path 1943" d="M355.5,202.4c-.641,1.442-1.586,9.266-1.754,10.821.625.164,1.039.281,1.039.281s.984-9.2,1.7-10.836Zm0,0" fill="rgba(0,0,0,0.32)"/>
    </g>
    <path id="Path_1944" data-name="Path 1944" d="M353.5,200.023a1.367,1.367,0,0,0,.59.887,8.031,8.031,0,0,1,1.043,1.059,7.464,7.464,0,0,1,1.031,2.074,25.337,25.337,0,0,1,.863,2.832c-2.277,1.059-4.863,1.008-7.285,1.7A5.859,5.859,0,0,0,347,210.2a3.764,3.764,0,0,0-1,2.969.36.36,0,0,0,.055.176.379.379,0,0,0,.316.129,2.726,2.726,0,0,0,1.672-.574,8.152,8.152,0,0,0,1.281-1.258,2.068,2.068,0,0,1,.91-.676,15.016,15.016,0,0,1,4.1-.4,52.426,52.426,0,0,0,6.106-.485.5.5,0,0,0,.406-.14.5.5,0,0,0,.14-.407c.2-2.687-.8-5.312-1.824-7.8q-.615-1.5-1.265-2.985a8.742,8.742,0,0,0-1.547-2.652,2.778,2.778,0,0,0-.91-.676,3.794,3.794,0,0,0-1.219-.226,8.581,8.581,0,0,0-2-.036,4.247,4.247,0,0,0-.192,1.036,8.976,8.976,0,0,0,1.1,3.492C353.2,199.848,353.395,199.859,353.5,200.023Zm0,0" fill="#be6f72"/>
    <g id="Group_1050" data-name="Group 1050">
      <path id="Path_1945" data-name="Path 1945" d="M369.881,276.43a3.355,3.355,0,0,0-.453,1.742,2.128,2.128,0,0,0,1.567,2.074" transform="translate(-23.675 -74.103)" fill="none" stroke="#000" stroke-miterlimit="10" stroke-width="0.455"/>
    </g>
    <path id="Path_1946" data-name="Path 1946" d="M348.527,187.359a2.1,2.1,0,0,0-.66.106,4.371,4.371,0,0,0-3.644-1.539c-2.176,0-3.938,1.125-3.938,2.508s1.762,2.507,3.938,2.507a5.592,5.592,0,0,0,2.363-.5,2.145,2.145,0,1,0,1.93-3.082Zm0,0" fill="#3f3d56"/>
    <g id="Group_1051" data-name="Group 1051">
      <path id="Path_1947" data-name="Path 1947" d="M348.7,191.117a2.139,2.139,0,0,1-1.93-1.215,5.47,5.47,0,0,1-2.363.5c-2.172,0-3.933-1.121-3.933-2.5a1.306,1.306,0,0,1,0-.25,1.678,1.678,0,0,0-.2.786c0,1.367,1.762,2.507,3.938,2.507a5.605,5.605,0,0,0,2.363-.5,2.144,2.144,0,0,0,4.039-.535A2.133,2.133,0,0,1,348.7,191.117Zm0,0" fill="rgba(0,0,0,0.32)"/>
    </g>
    <g id="Group_1052" data-name="Group 1052">
      <path id="Path_1948" data-name="Path 1948" d="M339.754,187.441a6.073,6.073,0,0,1,6.828-3.257,6.437,6.437,0,0,1,9.8,4.949v-.539a6.438,6.438,0,0,0-9.82-5.469,6.078,6.078,0,0,0-6.829,3.258,7.417,7.417,0,0,0-2.316,5.543v.539A7.283,7.283,0,0,1,339.754,187.441Zm0,0" fill="rgba(0,0,0,0.32)"/>
    </g>
    <path id="Path_1949" data-name="Path 1949" d="M404.474,262.91c1.187-2.2-.16-4.9-1.711-6.867s-3.437-4-3.4-6.512c.055-3.594,3.871-5.719,6.922-7.625a33.673,33.673,0,0,0,6.211-5.016,9.069,9.069,0,0,0,1.91-2.555,10.453,10.453,0,0,0,.574-4.555q-.2-7.7-.758-15.383" transform="translate(-23.675 -74.103)" fill="none" stroke="#3f3d56" stroke-miterlimit="10" stroke-width="1.822"/>
    <path id="Path_1950" data-name="Path 1950" d="M396.34,140.023a5.592,5.592,0,0,0-2.793-4.593l-1.258,2.484.035-3.008a5.442,5.442,0,0,0-1.844-.222,5.608,5.608,0,1,0,5.86,5.339Zm0,0" fill="#ff2828"/>
    <path id="Path_1951" data-name="Path 1951" d="M386.348,177.992a5.609,5.609,0,1,1,.269-4.519l-3.5,2.851,3.852-.91A5.585,5.585,0,0,1,386.348,177.992Zm0,0" fill="#ff2828"/>
    <path id="Path_1952" data-name="Path 1952" d="M383.578,167.1a5.61,5.61,0,0,1-1.781-11l-.027,2.308,1.273-2.511a5.612,5.612,0,0,1,.523,11.211Zm0,0" fill="#ff2828"/>
    <path id="Path_1953" data-name="Path 1953" d="M397.184,158.039a5.608,5.608,0,1,1,2.48-10.48l-.992,2.734,2.039-1.961a5.574,5.574,0,0,1,1.82,3.875,5.369,5.369,0,0,1-.14,1.543A5.606,5.606,0,0,1,397.184,158.039Zm0,0" fill="#ff2828"/>
    <g id="Group_1053" data-name="Group 1053">
      <path id="Path_1954" data-name="Path 1954" d="M395.59,141.516c-1.293.148-2.555.547-3.852.629a4.175,4.175,0,0,1-3.547-1.243,17.317,17.317,0,0,1-1.035-1.824,4.022,4.022,0,0,0-1.41-1.328,5.606,5.606,0,1,0,10.473,3.723C396.008,141.48,395.8,141.492,395.59,141.516Zm0,0" fill="rgba(0,0,0,0.32)"/>
    </g>
    <g id="Group_1054" data-name="Group 1054">
      <path id="Path_1955" data-name="Path 1955" d="M397.184,158.039a5.611,5.611,0,0,1-5.332-8,4.122,4.122,0,0,1,1.128,1.125,18.355,18.355,0,0,0,1.11,1.852,4.563,4.563,0,0,0,3.719,1.3c1.351-.062,2.656-.457,4-.57.187,0,.378-.031.566-.035A5.6,5.6,0,0,1,397.184,158.039Zm0,0" fill="rgba(0,0,0,0.32)"/>
    </g>
    <g id="Group_1055" data-name="Group 1055">
      <path id="Path_1956" data-name="Path 1956" d="M383.578,167.1a5.6,5.6,0,0,1-5.375-7.907,4.636,4.636,0,0,1,1.184,1.141c.453.613.7,1.324,1.215,1.891a5.2,5.2,0,0,0,3.968,1.394c1.434-.035,2.735-.375,4.1-.48A5.606,5.606,0,0,1,383.578,167.1Zm0,0" fill="rgba(0,0,0,0.32)"/>
    </g>
    <g id="Group_1056" data-name="Group 1056">
      <path id="Path_1957" data-name="Path 1957" d="M386.348,177.992a5.611,5.611,0,0,1-10.223-4.558,5.456,5.456,0,0,1,1.23,1.1c.536.653.887,1.367,1.5,2a7.035,7.035,0,0,0,4.641,1.633A24.635,24.635,0,0,0,386.348,177.992Zm0,0" fill="rgba(0,0,0,0.32)"/>
    </g>
    <path id="Path_1958" data-name="Path 1958" d="M476.866,332.167c1.188-2.2-.159-4.9-1.712-6.867s-3.437-4-3.4-6.508c.055-3.6,3.87-5.719,6.92-7.629a33.722,33.722,0,0,0,6.21-5.012,9.11,9.11,0,0,0,1.912-2.559,10.492,10.492,0,0,0,.574-4.554q-.2-7.7-.76-15.383" transform="translate(-23.675 -74.103)" fill="none" stroke="#3f3d56" stroke-miterlimit="10" stroke-width="1.822"/>
    <path id="Path_1959" data-name="Path 1959" d="M468.73,209.281a5.6,5.6,0,0,0-2.792-4.593l-1.258,2.484.035-3.008a5.512,5.512,0,0,0-1.82-.223,5.61,5.61,0,1,0,5.859,5.34Zm0,0" fill="#ff2828"/>
    <path id="Path_1960" data-name="Path 1960" d="M458.738,247.25a5.608,5.608,0,1,1,.27-4.52l-3.5,2.852,3.851-.91A5.58,5.58,0,0,1,458.738,247.25Zm0,0" fill="#ff2828"/>
    <path id="Path_1961" data-name="Path 1961" d="M455.969,236.355a5.609,5.609,0,0,1-1.778-11l-.027,2.308,1.27-2.508a5.61,5.61,0,0,1,.523,11.207Zm0,0" fill="#ff2828"/>
    <path id="Path_1962" data-name="Path 1962" d="M469.574,227.3a5.608,5.608,0,1,1,2.481-10.481l-.992,2.735,2.039-1.957a5.591,5.591,0,0,1,1.824,3.871,5.451,5.451,0,0,1-.145,1.547A5.6,5.6,0,0,1,469.574,227.3Zm0,0" fill="#ff2828"/>
    <g id="Group_1057" data-name="Group 1057">
      <path id="Path_1963" data-name="Path 1963" d="M467.98,210.777c-1.292.145-2.554.547-3.851.629a4.176,4.176,0,0,1-3.547-1.246,16.946,16.946,0,0,1-1.031-1.824,4.009,4.009,0,0,0-1.414-1.328,5.606,5.606,0,1,0,10.472,3.722C468.4,210.738,468.191,210.754,467.98,210.777Zm0,0" fill="rgba(0,0,0,0.32)"/>
    </g>
    <g id="Group_1058" data-name="Group 1058">
      <path id="Path_1964" data-name="Path 1964" d="M469.574,227.3a5.611,5.611,0,0,1-5.332-8,4.126,4.126,0,0,1,1.129,1.125,17.441,17.441,0,0,0,1.113,1.855,4.551,4.551,0,0,0,3.715,1.3c1.352-.062,2.656-.453,4-.566.188,0,.379-.035.567-.039A5.606,5.606,0,0,1,469.574,227.3Zm0,0" fill="rgba(0,0,0,0.32)"/>
    </g>
    <g id="Group_1059" data-name="Group 1059">
      <path id="Path_1965" data-name="Path 1965" d="M455.969,236.355a5.6,5.6,0,0,1-5.375-7.906,4.634,4.634,0,0,1,1.183,1.141c.453.613.707,1.324,1.215,1.89a5.186,5.186,0,0,0,3.973,1.4c1.433-.031,2.73-.375,4.094-.48A5.6,5.6,0,0,1,455.969,236.355Zm0,0" fill="rgba(0,0,0,0.32)"/>
    </g>
    <g id="Group_1060" data-name="Group 1060">
      <path id="Path_1966" data-name="Path 1966" d="M458.738,247.25a5.61,5.61,0,0,1-10.222-4.555,5.409,5.409,0,0,1,1.23,1.1c.539.652.91,1.367,1.5,2a7.02,7.02,0,0,0,4.645,1.629A23.938,23.938,0,0,0,458.738,247.25Zm0,0" fill="rgba(0,0,0,0.32)"/>
    </g>
    <path id="Path_1967" data-name="Path 1967" d="M217.629,193.781a4.468,4.468,0,0,0-1.781-3.609,5.236,5.236,0,0,0-4.375-5.141,5.227,5.227,0,0,0-3.481-3.894,4.626,4.626,0,0,0-.648-.153h-.77a5.131,5.131,0,0,0-4.953,4.383c-1.6-.367-3.058.11-3.328,1.121a1.377,1.377,0,0,0,.047.813,3.51,3.51,0,0,0,2.348,1.9l.156.047.23.059h.051a4.071,4.071,0,0,0-.383,1.726,3.981,3.981,0,0,0,2.145,3.555l-.106.066a1.359,1.359,0,0,0-.343.481,7.256,7.256,0,0,0-.672,1.613c-.114.484-.129.984-.274,1.465-.262.879-.937,1.621-1.012,2.535-.039.41.032.914-.261,1.176a1.441,1.441,0,0,1-.231.164,1.891,1.891,0,0,0-.508.535,1.693,1.693,0,0,1-.355.508c-.262.2-.7.18-.824.484s.207.664.129,1-.36.4-.563.586a2.034,2.034,0,0,0-.488.91,2.981,2.981,0,0,1-2.461-.629,4.679,4.679,0,0,1,.258.911,4.052,4.052,0,0,0-1.324-.664,4.172,4.172,0,0,1-1.414-1.047l.757-.106-3.34-5.1-.988-.207.887,1.7a.542.542,0,0,0-.3.359,1.631,1.631,0,0,0-.035.582,11.081,11.081,0,0,0,.23,1.367l.254,1.192c.024.109.051.222.082.332a3.226,3.226,0,0,0-.988.109,8.6,8.6,0,0,0-2.055-.488,1.277,1.277,0,0,0-.453,0,1.188,1.188,0,0,0-.433.351,13.8,13.8,0,0,0-1.524,2.153,75.662,75.662,0,0,1-6.437,8.679c-1.551.629-3.114,1.227-4.672,1.825l-3.359,1.285a5.131,5.131,0,0,1-2.086.453c-.321,0-.715-.066-.911.207a1.8,1.8,0,0,0-.207.453l-.343.039a4.055,4.055,0,0,0-.809-1.488.514.514,0,0,0-.375.293,4.758,4.758,0,0,1-.23.457c-.176.262-.493.391-.715.613s-.364.571-.61.8a2.409,2.409,0,0,1-1.14.457,7.221,7.221,0,0,0-1.793.68,2.808,2.808,0,0,1-.66.3,2.472,2.472,0,0,1-.778.028l-1.773-.133a1.414,1.414,0,0,0-.481.023.909.909,0,0,0-.562.911,1.441,1.441,0,0,0,.562.98,3.689,3.689,0,0,0,1.012.524,29.467,29.467,0,0,0,4.734,1.4v.363a8.127,8.127,0,0,0,3.645.863.53.53,0,0,0,.27-.05.594.594,0,0,0,.23-.356,14.775,14.775,0,0,0,.711-3.488,1.855,1.855,0,0,0,.641-.164c.609-.168,1.218.25,1.851.32a5.083,5.083,0,0,0,2.238-.648l.317-.106a3.512,3.512,0,0,1-.738.707c-.305.219-.645.383-.942.61a6.906,6.906,0,0,1-.8.621,4.95,4.95,0,0,1-.613.234,4.124,4.124,0,0,0-.879.457,1.79,1.79,0,0,0-.6.582.875.875,0,0,0-.05.82.865.865,0,0,0,.59.411,2.243,2.243,0,0,0,.722,0c.965-.071,1.926-.157,2.887-.246a7.467,7.467,0,0,0,1.207-.172c.207-.051.418-.118.629-.176a5.149,5.149,0,0,1,1.094-.164.808.808,0,0,1,.32.031c.223.07.383.3.609.344a.911.911,0,0,0,.457-.059,10.069,10.069,0,0,1,2.133-.226.885.885,0,0,0,.832-.371c.145-.289-.121-.758-.238-1.149a3.482,3.482,0,0,1-.1-.754,4.741,4.741,0,0,0-.527-1.8,4.838,4.838,0,0,1-.4-.82,20.718,20.718,0,0,0,3.93-2,7.023,7.023,0,0,1,2.238-1.078,6.106,6.106,0,0,1,2.813.328,63.8,63.8,0,0,1,6.453,2.25c1,.414,2.008.852,3.047,1.168a4.693,4.693,0,0,0,1.082,1.051,5,5,0,0,0,2.344.644,30.814,30.814,0,0,0,3.3.121,5.551,5.551,0,0,0,2.461-.453,2.652,2.652,0,0,0,.512-.344,2.041,2.041,0,0,0,1.621-.6,3.933,3.933,0,0,0,1.235-1.949c.269-1.039.066-2.278.7-3.11.168-.226.39-.41.558-.637a1.819,1.819,0,0,0,.293-1.05.145.145,0,0,1,.028-.043,4.092,4.092,0,0,0,.273-1.047,5.927,5.927,0,0,1,.293-.828,25.273,25.273,0,0,0,.848-2.457,13.76,13.76,0,0,0,.39-1.688c.071-.453.11-.91.149-1.367a8.459,8.459,0,0,1,.414-2.109,17.15,17.15,0,0,0,.953-5.047v-.1a3.379,3.379,0,0,0,3-3.445,3.582,3.582,0,0,0-.312-1.469A4.565,4.565,0,0,0,217.629,193.781Zm-16.289,19.8c.051.18.109.352.168.523-.27-.257-.528-.527-.8-.793.1.039.215.071.312.11a1.667,1.667,0,0,1,.3.16Zm-1.289-.875c-1.574-1.367-3.4-2.426-5.008-3.754.879.434,1.734.938,2.582,1.422q1.506.861,3.055,1.652a2.487,2.487,0,0,1-.645.68Zm.668-3.445.078-.075v.539l-.422-.144a3.708,3.708,0,0,0,.332-.32Zm-13.852,3.691a12.956,12.956,0,0,0,1.672-2.391,16.255,16.255,0,0,0,2.5,2.793C189.652,213.18,188.258,213.031,186.867,212.957Zm0,0" fill="url(#linear-gradient-2)"/>
    <path id="Path_1968" data-name="Path 1968" d="M189.1,199.691l.993.2,3.382,5.007-1.488.2Zm0,0" fill="#2f2e41"/>
    <path id="Path_1969" data-name="Path 1969" d="M165.039,220a19.814,19.814,0,0,0,.992,2.582,24.891,24.891,0,0,0,3.3-.941,10.3,10.3,0,0,0-.687-.915,3.4,3.4,0,0,0-.934-.714,2.64,2.64,0,0,0-1.133,0C166.066,220,165.555,220.012,165.039,220Zm0,0" fill="#fbbebe"/>
    <path id="Path_1970" data-name="Path 1970" d="M167.715,221.336a2.052,2.052,0,0,1-1.129-1.285,4.119,4.119,0,0,0-.859-1.535.493.493,0,0,0-.383.289c-.082.144-.133.308-.223.457-.183.258-.5.386-.73.605s-.364.559-.61.781a2.409,2.409,0,0,1-1.152.457,7.586,7.586,0,0,0-1.82.668,2.842,2.842,0,0,1-.668.3,2.655,2.655,0,0,1-.786,0l-1.792-.125a1.282,1.282,0,0,0-.454,0,.868.868,0,0,0-.57.91,1.351,1.351,0,0,0,.57.965,3.64,3.64,0,0,0,1.02.52,29.651,29.651,0,0,0,4.805,1.367v.355a8.276,8.276,0,0,0,3.668.852.593.593,0,0,0,.273-.043.64.64,0,0,0,.227-.355,14.35,14.35,0,0,0,.75-3.9,3.038,3.038,0,0,0-.079-1.008c-.1-.32.239-.183-.07-.312" fill="#2f2e41"/>
    <path id="Path_1971" data-name="Path 1971" d="M202.117,214.57c-5.316.321-10.57-1.238-15.9-1.4a7.81,7.81,0,0,0-1.977.121,10.348,10.348,0,0,0-1.957.762c-2.855,1.332-5.808,2.433-8.758,3.531l-3.394,1.262a5.119,5.119,0,0,1-2.1.457c-.324,0-.719-.067-.91.2a3.334,3.334,0,0,0,.07,2.941c.121.3.321.618.641.653a1.934,1.934,0,0,0,.644-.164c.614-.164,1.231.25,1.868.316a5.246,5.246,0,0,0,2.254-.637,19.328,19.328,0,0,1,3.859-.656,17.238,17.238,0,0,0,6.047-2.512,7.117,7.117,0,0,1,2.254-1.066,6.257,6.257,0,0,1,2.836.324,65.831,65.831,0,0,1,6.507,2.215,29.706,29.706,0,0,0,3.4,1.242,12.285,12.285,0,0,0,7.617-.453c.852-.34,1.778-.914,1.821-1.851.035-.524-.375-.985-.645-1.434-.172-.289-.352-.574-.539-.852C204.844,216.242,203.734,214.477,202.117,214.57Zm0,0" fill="#2f2e41"/>
    <g id="Group_1061" data-name="Group 1061">
      <path id="Path_1972" data-name="Path 1972" d="M202.117,214.57c-5.316.321-10.57-1.238-15.9-1.4a7.81,7.81,0,0,0-1.977.121,10.348,10.348,0,0,0-1.957.762c-2.855,1.332-5.808,2.433-8.758,3.531l-3.394,1.262a5.119,5.119,0,0,1-2.1.457c-.324,0-.719-.067-.91.2a3.334,3.334,0,0,0,.07,2.941c.121.3.321.618.641.653a1.934,1.934,0,0,0,.644-.164c.614-.164,1.231.25,1.868.316a5.246,5.246,0,0,0,2.254-.637,19.328,19.328,0,0,1,3.859-.656,17.238,17.238,0,0,0,6.047-2.512,7.117,7.117,0,0,1,2.254-1.066,6.257,6.257,0,0,1,2.836.324,65.831,65.831,0,0,1,6.507,2.215,29.706,29.706,0,0,0,3.4,1.242,12.285,12.285,0,0,0,7.617-.453c.852-.34,1.778-.914,1.821-1.851.035-.524-.375-.985-.645-1.434-.172-.289-.352-.574-.539-.852C204.844,216.242,203.734,214.477,202.117,214.57Zm0,0" fill="rgba(0,0,0,0.32)"/>
    </g>
    <path id="Path_1973" data-name="Path 1973" d="M175.25,220.25q1.248.422,2.52.781c.453-.777,1.363-1.32,1.562-2.215a.288.288,0,0,0,0-.117.233.233,0,0,0-.1-.086,4.742,4.742,0,0,0-1.976-.578c-.547-.031-.8.535-1.043.938C176.121,219.152,175.473,220.336,175.25,220.25Zm0,0" fill="#fbbebe"/>
    <path id="Path_1974" data-name="Path 1974" d="M176.418,219.691a1.81,1.81,0,0,1-1.227-.8c-.113-.207-.242-.485-.476-.457s-.317.273-.367.488a13.44,13.44,0,0,1-.688,2.363,4.39,4.39,0,0,1-1.469,1.938c-.308.215-.652.375-.957.6a6.137,6.137,0,0,1-.8.61,4.314,4.314,0,0,1-.621.23,4.49,4.49,0,0,0-.883.453,1.776,1.776,0,0,0-.606.582.833.833,0,0,0-.043.8.861.861,0,0,0,.586.4,2.514,2.514,0,0,0,.735,0c.968-.07,1.937-.156,2.906-.242a8.509,8.509,0,0,0,1.219-.168l.632-.176a5.333,5.333,0,0,1,1.106-.164.911.911,0,0,1,.324.036c.223.07.383.292.613.339a1.022,1.022,0,0,0,.457-.058,9.932,9.932,0,0,1,2.153-.223.9.9,0,0,0,.836-.367c.183-.356-.117-.75-.239-1.133a3.435,3.435,0,0,1-.1-.742,4.546,4.546,0,0,0-.531-1.77c-.246-.453-.586-.957-.41-1.437a1.45,1.45,0,0,0,.164-.5C178.656,219.516,176.863,219.793,176.418,219.691Zm0,0" fill="#2f2e41"/>
    <path id="Path_1975" data-name="Path 1975" d="M194.145,206.031a4.161,4.161,0,0,1-2.122-2.105c-.085-.2-.16-.414-.246-.613a4.668,4.668,0,0,0-1.265-1.766.621.621,0,0,0-.453-.195.507.507,0,0,0-.344.371,1.385,1.385,0,0,0-.035.57,10.347,10.347,0,0,0,.226,1.328l.262,1.176a2.441,2.441,0,0,0,.156.523,1.845,1.845,0,0,0,.434.516c.238.219.476.43.719.637a2.259,2.259,0,0,0,.457.316,2.767,2.767,0,0,0,.8.238,6.842,6.842,0,0,1,3.024,1.164v-.875a1.162,1.162,0,0,0-.227-.632A4.085,4.085,0,0,0,194.145,206.031Zm0,0" fill="#fbbebe"/>
    <g id="Group_1062" data-name="Group 1062">
      <path id="Path_1976" data-name="Path 1976" d="M194.145,206.031a4.161,4.161,0,0,1-2.122-2.105c-.085-.2-.16-.414-.246-.613a4.668,4.668,0,0,0-1.265-1.766.621.621,0,0,0-.453-.195.507.507,0,0,0-.344.371,1.385,1.385,0,0,0-.035.57,10.347,10.347,0,0,0,.226,1.328l.262,1.176a2.441,2.441,0,0,0,.156.523,1.845,1.845,0,0,0,.434.516c.238.219.476.43.719.637a2.259,2.259,0,0,0,.457.316,2.767,2.767,0,0,0,.8.238,6.842,6.842,0,0,1,3.024,1.164v-.875a1.162,1.162,0,0,0-.227-.632A4.085,4.085,0,0,0,194.145,206.031Zm0,0" fill="rgba(0,0,0,0.32)"/>
    </g>
    <path id="Path_1977" data-name="Path 1977" d="M206.266,195.734a1.293,1.293,0,1,0-1.293,1.305A1.3,1.3,0,0,0,206.266,195.734Zm0,0" fill="#2f2e41"/>
    <path id="Path_1978" data-name="Path 1978" d="M204.172,194.949a1.387,1.387,0,0,0-1.02.149,1.414,1.414,0,0,0-.351.476,7.091,7.091,0,0,0-.676,1.586c-.113.457-.129.973-.277,1.442-.262.863-.942,1.6-1.02,2.5-.035.406.031.878-.262,1.152a1.644,1.644,0,0,1-.234.168,1.727,1.727,0,0,0-.508.527,1.788,1.788,0,0,1-.359.5c-.266.2-.7.176-.828.453s.2.657.125.985-.364.394-.571.574a2,2,0,0,0-.488.914,3.031,3.031,0,0,1-2.476-.617,8.043,8.043,0,0,1,.386,2.836,1.177,1.177,0,0,1-.23.875,15.732,15.732,0,0,1,3.039.527,2.069,2.069,0,0,0,1.324,0,2.206,2.206,0,0,0,.609-.484,3.883,3.883,0,0,0,1.254-1.93,11.193,11.193,0,0,0,.02-1.308,7.344,7.344,0,0,1,.336-1.59,19.4,19.4,0,0,0,.578-3.274c.059-.683.648-1.23.957-1.82a8.857,8.857,0,0,0,1.227-3.645C204.746,195.52,204.6,195,204.172,194.949Zm0,0" fill="#2f2e41"/>
    <g id="Group_1063" data-name="Group 1063">
      <path id="Path_1979" data-name="Path 1979" d="M204.172,194.949a1.387,1.387,0,0,0-1.02.149,1.414,1.414,0,0,0-.351.476,7.091,7.091,0,0,0-.676,1.586c-.113.457-.129.973-.277,1.442-.262.863-.942,1.6-1.02,2.5-.035.406.031.878-.262,1.152a1.644,1.644,0,0,1-.234.168,1.727,1.727,0,0,0-.508.527,1.788,1.788,0,0,1-.359.5c-.266.2-.7.176-.828.453s.2.657.125.985-.364.394-.571.574a2,2,0,0,0-.488.914,3.031,3.031,0,0,1-2.476-.617,8.043,8.043,0,0,1,.386,2.836,1.177,1.177,0,0,1-.23.875,15.732,15.732,0,0,1,3.039.527,2.069,2.069,0,0,0,1.324,0,2.206,2.206,0,0,0,.609-.484,3.883,3.883,0,0,0,1.254-1.93,11.193,11.193,0,0,0,.02-1.308,7.344,7.344,0,0,1,.336-1.59,19.4,19.4,0,0,0,.578-3.274c.059-.683.648-1.23.957-1.82a8.857,8.857,0,0,0,1.227-3.645C204.746,195.52,204.6,195,204.172,194.949Zm0,0" fill="rgba(0,0,0,0.32)"/>
    </g>
    <path id="Path_1980" data-name="Path 1980" d="M202.961,215.691a11.979,11.979,0,0,1-2.816-2.351c-1.707-1.606-3.8-2.735-5.594-4.25a39.2,39.2,0,0,0-3.567-3,8.882,8.882,0,0,0-3.82-1.332.991.991,0,0,0-.453,0,1.053,1.053,0,0,0-.434.34,13.98,13.98,0,0,0-1.543,2.121c-2.277,3.871-5.511,7.125-8.195,10.722a.764.764,0,0,0-.133.258.625.625,0,0,0,.1.395l.547,1.066c.3.6.8,1.3,1.453,1.18a1.583,1.583,0,0,0,.758-.488l2.449-2.344,2.57-2.457A19.781,19.781,0,0,0,188.3,210.8c.765,1.328,2.125,2.2,3.054,3.414.356.457.645.972.965,1.465.5.781,1.082,1.519,1.657,2.277l2.945,3.758a5.617,5.617,0,0,0,1.367,1.367,5.172,5.172,0,0,0,2.363.633,30.819,30.819,0,0,0,3.328.121,5.687,5.687,0,0,0,2.481-.457,2.253,2.253,0,0,0,1.344-2,2.98,2.98,0,0,0-.422-1.242A10.17,10.17,0,0,0,202.961,215.691Zm0,0" fill="#2f2e41"/>
    <path id="Path_1981" data-name="Path 1981" d="M206.766,196.637a1,1,0,1,0-1,1A1,1,0,0,0,206.766,196.637Zm0,0" fill="#e8e8f0"/>
    <path id="Path_1982" data-name="Path 1982" d="M205.551,195.887a1.91,1.91,0,0,1,.109,1.437,5.957,5.957,0,0,1-.64,1.328,6.442,6.442,0,0,1-.836,1.184,8.557,8.557,0,0,0,4.382-1.258,6.383,6.383,0,0,0,2.762-2.41,1.289,1.289,0,0,1-1.019-.191,3.652,3.652,0,0,1-.778-.727l-.769-.863a3.6,3.6,0,0,1-.457-.625,1.736,1.736,0,0,1-.2-1.008,5.952,5.952,0,0,1-1.02.848c-.551.359-1.156.621-1.715.976-.191.125-.625.328-.512.582S205.4,195.613,205.551,195.887Zm0,0" fill="#fbbebe"/>
    <g id="Group_1064" data-name="Group 1064">
      <path id="Path_1983" data-name="Path 1983" d="M205.551,195.887a1.91,1.91,0,0,1,.109,1.437,5.957,5.957,0,0,1-.64,1.328,6.442,6.442,0,0,1-.836,1.184,8.557,8.557,0,0,0,4.382-1.258,6.383,6.383,0,0,0,2.762-2.41,1.289,1.289,0,0,1-1.019-.191,3.652,3.652,0,0,1-.778-.727l-.769-.863a3.6,3.6,0,0,1-.457-.625,1.736,1.736,0,0,1-.2-1.008,5.952,5.952,0,0,1-1.02.848c-.551.359-1.156.621-1.715.976-.191.125-.625.328-.512.582S205.4,195.613,205.551,195.887Zm0,0" fill="rgba(0,0,0,0.32)"/>
    </g>
    <path id="Path_1984" data-name="Path 1984" d="M205.57,196.035a1.3,1.3,0,0,0,0,1.5c.043.055.207.4.278.4a.254.254,0,0,0,.172-.093,11.183,11.183,0,0,0,.972-1.16,2.2,2.2,0,0,1,1.238-.813,2.675,2.675,0,0,1,1.711.535,1.153,1.153,0,0,1,.778,1.106,31.278,31.278,0,0,1,.172,4.14,16.2,16.2,0,0,1-.2,2.985c-.1.507-.246,1-.312,1.519a9.457,9.457,0,0,0-.067,1.367v1.9a4.975,4.975,0,0,0,.075,1.047,12.4,12.4,0,0,0,.418,1.207,7.72,7.72,0,0,1,.277,1.425l.262,1.969a2.48,2.48,0,0,1-.235,1.82c-.168.223-.39.407-.562.629-.645.84-.457,2.039-.707,3.063A3.823,3.823,0,0,1,208.6,222.5a2.073,2.073,0,0,1-1.645.59,2.262,2.262,0,0,1-1.5-1.774,7.062,7.062,0,0,0-.765-2.312,6.2,6.2,0,0,0-1.524-1.27,2.63,2.63,0,0,1-1.187-1.547c-.051-.285,0-.582-.051-.871a2.064,2.064,0,0,0-1.27-1.675c-.41-.157-.91-.219-1.148-.59a2.769,2.769,0,0,0,1.2-1.61,8.3,8.3,0,0,0,.289-2.031l.137-2.277a7.671,7.671,0,0,1,.543-2.957c.2-.41.457-.8.66-1.2a13.059,13.059,0,0,0,.707-1.766c.328-.938.656-1.875.945-2.824a5.324,5.324,0,0,1,.52-1.317C204.754,196.641,205.109,196.125,205.57,196.035Zm0,0" fill="#e8e8f0"/>
    <path id="Path_1985" data-name="Path 1985" d="M200.492,210.906h.606l.129-.91a1.845,1.845,0,0,1,.125-.531,3.05,3.05,0,0,1,.351-.512,6.622,6.622,0,0,0,.695-2.984,15.186,15.186,0,0,1,1.332-3.9l1.172-2.617a3.427,3.427,0,0,0,.258-.672,3.936,3.936,0,0,0,.07-.773c0-.406.129-1.883.145-2.277,0-.153-.336-.071-.4-.2-.145-.289-.348.5-.625.672a1.51,1.51,0,0,0-.539.793c-.258.657-.411,1.367-.649,2.02a4.123,4.123,0,0,1-1.1,1.785c-.243.207-.52.379-.747.6a4.111,4.111,0,0,0-.824,2.9C200.473,204.922,200.355,210.906,200.492,210.906Zm0,0" fill="#2f2e41"/>
    <path id="Path_1986" data-name="Path 1986" d="M209.207,194.945a2.075,2.075,0,0,0-1.078,1.481,7.628,7.628,0,0,1-.547,1.824c-.738,1.285-2.617,1.66-3.141,3.047a5.63,5.63,0,0,0-.211,1.437c-.089,1-.417,1.957-.519,2.954a13.08,13.08,0,0,0,.055,2.316l.66,7.848a10.579,10.579,0,0,1-.2,3.453,3.308,3.308,0,0,0,1.977-.328c.613-.282,1.18-.668,1.773-1a18.1,18.1,0,0,0,3.047-1.714,1.847,1.847,0,0,0,.411-.457,3.913,3.913,0,0,0,.273-1.028,5.44,5.44,0,0,1,.3-.812,24.428,24.428,0,0,0,.855-2.422,14.338,14.338,0,0,0,.391-1.66c.074-.457.113-.91.152-1.367a8.05,8.05,0,0,1,.418-2.075,16.714,16.714,0,0,0,.961-4.972,2.668,2.668,0,0,0-.051-.731,3.781,3.781,0,0,0-.4-.832c-.273-.515-.453-1.082-.691-1.605a7.817,7.817,0,0,0-2.692-2.828A2.03,2.03,0,0,0,209.207,194.945Zm0,0" fill="#2f2e41"/>
    <path id="Path_1987" data-name="Path 1987" d="M195.453,207.75a4.737,4.737,0,0,1-1.254-.953c-.164-.192-.3-.406-.453-.6a3.126,3.126,0,0,0-1.578-.91,7.52,7.52,0,0,0-1.82-.176,3.294,3.294,0,0,0-1.215.145,1.24,1.24,0,0,0-.8.867,1.426,1.426,0,0,0,.613,1.273,2.9,2.9,0,0,0,1.227.594,10.162,10.162,0,0,0,1.1.133c2.176.227,4.122,1.41,6.028,2.492q2.514,1.43,5.125,2.66a10.706,10.706,0,0,0,.09-1.57c0-.394-.036-1-.4-1.227a7.96,7.96,0,0,0-1.629-.488,25.4,25.4,0,0,1-3.285-1.332A16.273,16.273,0,0,1,195.453,207.75Zm0,0" fill="#fbbebe"/>
    <path id="Path_1988" data-name="Path 1988" d="M208.852,191.535a3.879,3.879,0,1,0-3.879,3.9A3.892,3.892,0,0,0,208.852,191.535Zm0,0" fill="#fbbebe"/>
    <path id="Path_1989" data-name="Path 1989" d="M210.313,199.371a6.128,6.128,0,0,0-.75,1.406c-.458.985-1.231,1.825-1.61,2.868s-.383,2.382-1.16,3.234a1.142,1.142,0,0,0-.34.492,2.119,2.119,0,0,1-.039.356c-.113.312-.617.324-.715.644-.027.09,0,.192-.043.281-.078.2-.351.239-.527.36-.379.254-.3.847-.57,1.218a1.022,1.022,0,0,1-.969.34,3.3,3.3,0,0,1-1.008-.379,1.023,1.023,0,0,0-.363-.113.728.728,0,0,0-.418.145,2.585,2.585,0,0,0-1.051,2.211,7.334,7.334,0,0,0,.6,2.476,1.033,1.033,0,0,0,.195.367.878.878,0,0,0,.969.075,4.4,4.4,0,0,1,.941-.426c.6-.11,1.188.3,1.8.269a2.515,2.515,0,0,0,1.211-.531A6.782,6.782,0,0,0,208.1,213.3c.261-.352.453-.75.691-1.121a13.863,13.863,0,0,1,.977-1.309l2.242-2.734a6.312,6.312,0,0,0,.6-.828,5.735,5.735,0,0,0,.454-1.254,9.687,9.687,0,0,0,.457-2.227,8.83,8.83,0,0,0-.165-1.871,6.679,6.679,0,0,0-.457-1.781C212.41,199.145,211.227,198.3,210.313,199.371Zm0,0" fill="#2f2e41"/>
    <path id="Path_1990" data-name="Path 1990" d="M218.109,194.277a4.386,4.386,0,0,0-1.8-3.554,5.2,5.2,0,0,0-4.411-5.063,5.039,5.039,0,0,0-9.929.27c-1.614-.367-3.086.109-3.356,1.1s.867,2.278,2.567,2.735a4.8,4.8,0,0,0,1.648.164,5.046,5.046,0,0,0,3.469,2.164A5.188,5.188,0,0,0,210.09,196a4.329,4.329,0,0,0,1.172,1.617V198a3.281,3.281,0,1,0,6.562,0,3.508,3.508,0,0,0-.312-1.453A4.458,4.458,0,0,0,218.109,194.277Zm0,0" fill="#f86d70"/>
    <g id="Group_1065" data-name="Group 1065">
      <path id="Path_1991" data-name="Path 1991" d="M199.711,187.242c.266-1,1.742-1.469,3.355-1.105a5.122,5.122,0,0,1,5.008-4.317h.332a4.82,4.82,0,0,0-1.429-.215,5.128,5.128,0,0,0-5.008,4.321c-1.614-.367-3.09.109-3.356,1.1s.867,2.278,2.567,2.735a5.2,5.2,0,0,0,.972.168C200.527,189.441,199.441,188.258,199.711,187.242Zm0,0" fill="rgba(0,0,0,0.32)"/>
    </g>
    <g id="Group_1066" data-name="Group 1066">
      <path id="Path_1992" data-name="Path 1992" d="M212.336,198.191a2.934,2.934,0,0,1,0-.375,4.224,4.224,0,0,1-1.172-1.617,5.169,5.169,0,0,1-3.789-3.914,5.032,5.032,0,0,1-3.473-2.16,4.234,4.234,0,0,1-.968-.027,5.047,5.047,0,0,0,3.343,1.992,5.188,5.188,0,0,0,3.789,3.91,4.385,4.385,0,0,0,1.172,1.617V198a3.343,3.343,0,0,0,3.262,3.4A3.4,3.4,0,0,1,212.336,198.191Zm0,0" fill="rgba(0,0,0,0.32)"/>
    </g>
    <path id="Path_1993" data-name="Path 1993" d="M206.746,191.973a.622.622,0,1,0,0,1A.72.72,0,0,0,206.746,191.973Zm0,0" fill="#fbbebe"/>
  </g>
</svg>
