<svg xmlns="http://www.w3.org/2000/svg" width="43.061" height="49.213" viewBox="0 0 43.061 49.213">
  <path id="bell-solid" d="M21.53,49.213a6.15,6.15,0,0,0,6.149-6.152h-12.3A6.15,6.15,0,0,0,21.53,49.213Zm20.7-14.39c-1.857-2-5.332-5-5.332-14.83A15.179,15.179,0,0,0,24.6,5.079v-2a3.074,3.074,0,1,0-6.148,0v2a15.179,15.179,0,0,0-12.3,14.914c0,9.833-3.475,12.835-5.332,14.83A3,3,0,0,0,0,36.909a3.079,3.079,0,0,0,3.085,3.076h36.89a3.078,3.078,0,0,0,3.085-3.076A3,3,0,0,0,42.233,34.823Z" transform="translate(0.001)" fill="#544848"/>
</svg>
