<svg xmlns="http://www.w3.org/2000/svg" width="28.453" height="21.34" viewBox="0 0 28.453 21.34">
  <path id="envelope-solid" d="M27.914,71.047a.335.335,0,0,1,.539.261V82.673a2.668,2.668,0,0,1-2.668,2.668H2.668A2.668,2.668,0,0,1,0,82.673V71.313a.332.332,0,0,1,.539-.261c1.245.967,2.9,2.2,8.564,6.313,1.173.856,3.151,2.656,5.124,2.645,1.984.017,4-1.823,5.129-2.645C25.025,73.247,26.67,72.014,27.914,71.047Zm-13.688,7.18c1.289.022,3.145-1.623,4.079-2.3,7.375-5.352,7.936-5.819,9.636-7.152a1.33,1.33,0,0,0,.511-1.05V66.668A2.668,2.668,0,0,0,25.786,64H2.668A2.668,2.668,0,0,0,0,66.668v1.056a1.338,1.338,0,0,0,.511,1.05c1.7,1.328,2.262,1.8,9.636,7.152C11.081,76.6,12.937,78.249,14.227,78.227Z" transform="translate(0 -64)" fill="#00a896"/>
</svg>
