<svg xmlns="http://www.w3.org/2000/svg" width="49.213" height="36.909" viewBox="0 0 49.213 36.909">
  <path id="envelope-solid" d="M48.28,76.188a.579.579,0,0,1,.932.452V96.3a4.615,4.615,0,0,1-4.614,4.614H4.614A4.615,4.615,0,0,1,0,96.3V76.649A.575.575,0,0,1,.932,76.2c2.153,1.672,5.008,3.8,14.812,10.919,2.028,1.48,5.45,4.594,8.862,4.575,3.431.029,6.921-3.153,8.872-4.575C43.282,79.994,46.127,77.86,48.28,76.188ZM24.606,88.606c2.23.038,5.44-2.807,7.055-3.979,12.755-9.256,13.726-10.064,16.667-12.37a2.3,2.3,0,0,0,.884-1.817V68.614A4.615,4.615,0,0,0,44.6,64H4.614A4.615,4.615,0,0,0,0,68.614V70.44a2.314,2.314,0,0,0,.884,1.817c2.941,2.3,3.912,3.114,16.667,12.37,1.615,1.173,4.825,4.018,7.055,3.979Z" transform="translate(0 -64)" fill="#544848"/>
</svg>
