<svg xmlns="http://www.w3.org/2000/svg" width="81" height="81" viewBox="0 0 81 81">
  <path id="facebook-square-brands" d="M72.321,32H8.679A8.679,8.679,0,0,0,0,40.679v63.643A8.679,8.679,0,0,0,8.679,113H33.494V85.462H22.1V72.5H33.494V62.621c0-11.237,6.69-17.444,16.936-17.444a69.006,69.006,0,0,1,10.038.875V57.081H54.814c-5.571,0-7.308,3.457-7.308,7V72.5H59.942L57.953,85.462H47.506V113H72.321A8.679,8.679,0,0,0,81,104.321V40.679A8.679,8.679,0,0,0,72.321,32Z" transform="translate(0 -32)" fill="#ece7e7"/>
</svg>
