<svg xmlns="http://www.w3.org/2000/svg" width="28.453" height="28.453" viewBox="0 0 28.453 28.453">
  <path id="fax-solid" d="M26.675,8.892v-4.6a1.778,1.778,0,0,0-.521-1.257L23.639.521A1.778,1.778,0,0,0,22.382,0H8.892A1.778,1.778,0,0,0,7.113,1.778v24.9a1.778,1.778,0,0,0,1.778,1.778H26.675a1.778,1.778,0,0,0,1.778-1.778V10.67A1.778,1.778,0,0,0,26.675,8.892ZM16.005,24.008a.889.889,0,0,1-.889.889H13.338a.889.889,0,0,1-.889-.889V22.229a.889.889,0,0,1,.889-.889h1.778a.889.889,0,0,1,.889.889Zm0-7.113a.889.889,0,0,1-.889.889H13.338a.889.889,0,0,1-.889-.889V15.116a.889.889,0,0,1,.889-.889h1.778a.889.889,0,0,1,.889.889Zm7.113,7.113a.889.889,0,0,1-.889.889H20.451a.889.889,0,0,1-.889-.889V22.229a.889.889,0,0,1,.889-.889h1.778a.889.889,0,0,1,.889.889Zm0-7.113a.889.889,0,0,1-.889.889H20.451a.889.889,0,0,1-.889-.889V15.116a.889.889,0,0,1,.889-.889h1.778a.889.889,0,0,1,.889.889Zm0-6.224H10.67V3.557h8.892V6.224a.889.889,0,0,0,.889.889h2.668ZM3.557,7.113H1.778A1.778,1.778,0,0,0,0,8.892V26.675a1.778,1.778,0,0,0,1.778,1.778H3.557a1.778,1.778,0,0,0,1.778-1.778V8.892A1.778,1.778,0,0,0,3.557,7.113Z" fill="#00a896"/>
</svg>
