<svg xmlns="http://www.w3.org/2000/svg" width="80" height="80" viewBox="0 0 80 80">
  <path id="instagram-square-brands" d="M40,62.475A9.525,9.525,0,1,0,49.529,72,9.525,9.525,0,0,0,40,62.475Zm22.27-7.321a9.643,9.643,0,0,0-5.43-5.43c-3.75-1.48-12.679-1.148-16.839-1.148s-13.08-.345-16.841,1.148a9.643,9.643,0,0,0-5.43,5.43C16.25,58.9,16.58,67.841,16.58,72s-.33,13.084,1.155,16.846a9.643,9.643,0,0,0,5.43,5.43c3.75,1.48,12.679,1.148,16.841,1.148s13.079.345,16.839-1.148a9.643,9.643,0,0,0,5.43-5.43c1.491-3.75,1.148-12.687,1.148-16.845s.343-13.082-1.148-16.845ZM40,86.643a14.625,14.625,0,1,1,10.359-4.284A14.643,14.643,0,0,1,40,86.643ZM55.246,60.161a1.417,1.417,0,1,1,.007.007ZM71.429,32H8.571A8.571,8.571,0,0,0,0,40.571v62.857A8.571,8.571,0,0,0,8.571,112H71.429A8.571,8.571,0,0,0,80,103.429V40.571A8.571,8.571,0,0,0,71.429,32ZM68.371,83.786c-.23,4.577-1.275,8.632-4.616,11.964s-7.393,4.4-11.964,4.616c-4.716.266-18.855.266-23.571,0-4.577-.23-8.618-1.277-11.964-4.616s-4.4-7.4-4.616-11.964c-.266-4.718-.266-18.859,0-23.571.23-4.577,1.262-8.632,4.616-11.964s7.405-4.386,11.964-4.6c4.716-.266,18.855-.266,23.571,0,4.577.23,8.63,1.277,11.964,4.616s4.4,7.4,4.616,11.973C68.637,64.936,68.637,79.064,68.371,83.786Z" transform="translate(0 -32)" fill="#ece7e7"/>
</svg>
