<svg xmlns="http://www.w3.org/2000/svg" width="30.455" height="34.533" viewBox="0 0 30.455 34.533">
  <path id="search-solid" d="M30.04,29.856,24.11,23.132A1.346,1.346,0,0,0,23.1,22.66h-.97a15.187,15.187,0,0,0,2.617-8.632C24.746,6.279,19.208,0,12.373,0S0,6.279,0,14.028,5.538,28.055,12.373,28.055a11.424,11.424,0,0,0,7.614-2.967v1.1a1.734,1.734,0,0,0,.416,1.146l5.931,6.724a1.307,1.307,0,0,0,2.017,0l1.683-1.909A1.784,1.784,0,0,0,30.04,29.856Zm-17.667-7.2c-4.206,0-7.614-3.858-7.614-8.632S8.161,5.4,12.373,5.4s7.614,3.858,7.614,8.632S16.585,22.66,12.373,22.66Z" fill="#0f0101"/>
</svg>
