<svg xmlns="http://www.w3.org/2000/svg" width="80" height="80" viewBox="0 0 80 80">
  <path id="twitter-square-brands" d="M71.429,32H8.571A8.574,8.574,0,0,0,0,40.571v62.857A8.574,8.574,0,0,0,8.571,112H71.429A8.574,8.574,0,0,0,80,103.429V40.571A8.574,8.574,0,0,0,71.429,32ZM62.7,60.357c.036.5.036,1.018.036,1.518,0,15.482-11.786,33.321-33.321,33.321a33.168,33.168,0,0,1-17.982-5.25,24.674,24.674,0,0,0,2.821.143,23.481,23.481,0,0,0,14.536-5,11.727,11.727,0,0,1-10.946-8.125,12.622,12.622,0,0,0,5.286-.214,11.713,11.713,0,0,1-9.375-11.5v-.143a11.7,11.7,0,0,0,5.286,1.482,11.687,11.687,0,0,1-5.214-9.75,11.565,11.565,0,0,1,1.589-5.911,33.254,33.254,0,0,0,24.143,12.25,11.737,11.737,0,0,1,19.982-10.7,22.949,22.949,0,0,0,7.429-2.821,11.681,11.681,0,0,1-5.143,6.446,23.306,23.306,0,0,0,6.75-1.821A24.652,24.652,0,0,1,62.7,60.357Z" transform="translate(0 -32)" fill="#ece7e7"/>
</svg>
