<svg xmlns="http://www.w3.org/2000/svg" width="77.333" height="80" viewBox="0 0 77.333 80">
  <path id="youtube-square-brands" d="M32.245,62.375l16.433,9.661L32.245,81.7Zm45.088-21.8v62.857A8.434,8.434,0,0,1,69.048,112H8.286A8.434,8.434,0,0,1,0,103.429V40.571A8.434,8.434,0,0,1,8.286,32H69.048A8.434,8.434,0,0,1,77.333,40.571Zm-7.25,31.482s0-10.643-1.312-15.75a8.022,8.022,0,0,0-5.558-5.786c-4.885-1.375-24.546-1.375-24.546-1.375s-19.661,0-24.546,1.375A8.022,8.022,0,0,0,8.562,56.3C7.25,61.393,7.25,72.054,7.25,72.054S7.25,82.7,8.562,87.8a7.9,7.9,0,0,0,5.558,5.7c4.885,1.357,24.546,1.357,24.546,1.357s19.661,0,24.546-1.375a7.9,7.9,0,0,0,5.558-5.7c1.312-5.089,1.312-15.732,1.312-15.732Z" transform="translate(0 -32)" fill="#ece7e7"/>
</svg>
